<?xml version="1.0" encoding="UTF-8" standalone="no"?>
<!-- Generator: Adobe Illustrator 16.0.0, SVG Export Plug-In . SVG Version: 6.00 Build 0)  -->

<svg
   xmlns:dc="http://purl.org/dc/elements/1.1/"
   xmlns:cc="http://creativecommons.org/ns#"
   xmlns:rdf="http://www.w3.org/1999/02/22-rdf-syntax-ns#"
   xmlns:svg="http://www.w3.org/2000/svg"
   xmlns="http://www.w3.org/2000/svg"
   xmlns:sodipodi="http://sodipodi.sourceforge.net/DTD/sodipodi-0.dtd"
   xmlns:inkscape="http://www.inkscape.org/namespaces/inkscape"
   version="1.1"
   id="Layer_1"
   x="0px"
   y="0px"
   width="52.720001"
   height="52.720001"
   viewBox="0 0 0 52.723"
   xml:space="preserve"
   inkscape:version="0.48.4 r9939"
   sodipodi:docname="freeze.svg"><metadata
     id="metadata9"><rdf:RDF><cc:Work
         rdf:about=""><dc:format>image/svg+xml</dc:format><dc:type
           rdf:resource="http://purl.org/dc/dcmitype/StillImage" /></cc:Work></rdf:RDF></metadata><defs
     id="defs7" /><sodipodi:namedview
     pagecolor="#ffffff"
     bordercolor="#666666"
     borderopacity="1"
     objecttolerance="10"
     gridtolerance="10"
     guidetolerance="10"
     inkscape:pageopacity="0"
     inkscape:pageshadow="2"
     inkscape:window-width="1678"
     inkscape:window-height="1025"
     id="namedview5"
     showgrid="false"
     inkscape:snap-nodes="true"
     inkscape:object-paths="false"
     inkscape:zoom="12.660676"
     inkscape:cx="28.907193"
     inkscape:cy="29.86217"
     inkscape:window-x="1680"
     inkscape:window-y="0"
     inkscape:window-maximized="1"
     inkscape:current-layer="Layer_1" /><path
     style="fill:#63883b;fill-opacity:1;stroke:none"
     d="M 26.375 0 C 11.816774 0 0 11.816774 0 26.375 C 4.7369516e-15 40.933225 11.816774 52.71875 26.375 52.71875 C 40.933225 52.71875 52.71875 40.933225 52.71875 26.375 C 52.71875 11.816774 40.933225 0 26.375 0 z M 16.6875 13.875 L 22.21875 13.875 C 23.037512 13.875 23.71875 14.560367 23.71875 15.4375 L 23.71875 37.28125 C 23.71875 38.158383 23.037512 38.875 22.21875 38.875 L 16.6875 38.875 C 15.868738 38.875 15.21875 38.158383 15.21875 37.28125 L 15.21875 15.4375 C 15.21875 14.560367 15.868738 13.875 16.6875 13.875 z M 30.6875 13.875 L 36.21875 13.875 C 37.037512 13.875 37.71875 14.560367 37.71875 15.4375 L 37.71875 37.28125 C 37.71875 38.158383 37.037512 38.875 36.21875 38.875 L 30.6875 38.875 C 29.868738 38.875 29.21875 38.158383 29.21875 37.28125 L 29.21875 15.4375 C 29.21875 14.560367 29.868738 13.875 30.6875 13.875 z "
     id="path2994" /></svg>