<svg xmlns:dc="http://purl.org/dc/elements/1.1/" xmlns:cc="http://creativecommons.org/ns#" xmlns:rdf="http://www.w3.org/1999/02/22-rdf-syntax-ns#" xmlns:svg="http://www.w3.org/2000/svg" xmlns="http://www.w3.org/2000/svg" xmlns:sodipodi="http://sodipodi.sourceforge.net/DTD/sodipodi-0.dtd" xmlns:inkscape="http://www.inkscape.org/namespaces/inkscape" version="1.1" id="Layer_1" x="0px" y="0px" width="52.7" height="52.7" viewBox="0 0 0 52.723" xml:space="preserve" inkscape:version="0.48.4 r9939">
  <metadata id="metadata9">
    <rdf:RDF>
      <cc:Work rdf:about="">
        <dc:format>image/svg+xml</dc:format>
        <dc:type rdf:resource="http://purl.org/dc/dcmitype/StillImage"/>
      </cc:Work>
    </rdf:RDF>
  </metadata>
  <defs id="defs7"/>
  <path style="fill:#b94a48;fill-opacity:1;stroke:none" d="M 26.4 0 C 11.8 0 0 11.8 0 26.4 C 0 40.9 11.8 52.7 26.4 52.7 C 40.9 52.7 52.7 40.9 52.7 26.4 C 52.7 11.8 40.9 0 26.4 0 z M 16.7 13.9 L 22.2 13.9 C 23 13.9 23.7 14.6 23.7 15.4 L 23.7 37.3 C 23.7 38.2 23 38.9 22.2 38.9 L 16.7 38.9 C 15.9 38.9 15.2 38.2 15.2 37.3 L 15.2 15.4 C 15.2 14.6 15.9 13.9 16.7 13.9 z M 30.7 13.9 L 36.2 13.9 C 37 13.9 37.7 14.6 37.7 15.4 L 37.7 37.3 C 37.7 38.2 37 38.9 36.2 38.9 L 30.7 38.9 C 29.9 38.9 29.2 38.2 29.2 37.3 L 29.2 15.4 C 29.2 14.6 29.9 13.9 30.7 13.9 z " id="path2994"/>
</svg>
