<svg xmlns:svg="http://www.w3.org/2000/svg" xmlns="http://www.w3.org/2000/svg" width="52.7" height="52.7" id="svg1306" version="1.1">
<style>
.s0{
	stop-color:#dac203;
	stop-opacity:1;
}
.s1{
	fill:none;
	stroke-linecap:round;
	stroke-width:1;
	stroke:#63883b;
}
.s2{
	fill:none;
	opacity:0.3;
	stroke-width:0.2;
	stroke:#63883b;
}

</style>  <defs id="defs1308">
    <linearGradient id="linearGradient9320">
      <stop id="stop9322" offset="0" style="stop-color:#fef088;stop-opacity:1"/>
      <stop offset="0.5" id="stop9324" style="stop-color:#fde63a;stop-opacity:1"/>
      <stop id="stop9326" offset="1" class="s0"/>
    </linearGradient>
    <linearGradient id="linearGradient8576">
      <stop offset="0" id="stop8578" class="s0"/>
      <stop id="stop8584" offset="0.5" style="stop-color:#fdec69;stop-opacity:1"/>
      <stop offset="1" id="stop8580" style="stop-color:#fdef7e;stop-opacity:1"/>
    </linearGradient>
    <linearGradient id="linearGradient3558">
      <stop offset="0" id="stop3560" style="stop-color:#000000;stop-opacity:1"/>
      <stop offset="1" id="stop3562" style="stop-color:#000000;stop-opacity:0"/>
    </linearGradient>
    <linearGradient id="linearGradient15303">
      <stop offset="0" id="stop15305" style="stop-color:#b30000;stop-opacity:1"/>
      <stop id="stop15311" offset="0.5" style="stop-color:#ff5c5c;stop-opacity:1"/>
      <stop offset="1" id="stop15307" style="stop-color:#c30000;stop-opacity:1"/>
    </linearGradient>
    <linearGradient id="linearGradient11647">
      <stop offset="0" id="stop11649" style="stop-color:#c17d10;stop-opacity:1"/>
      <stop offset="1" id="stop11651" style="stop-color:#9b650c;stop-opacity:1"/>
    </linearGradient>
  </defs>
  <metadata id="metadata1311"/>
  <g id="layer1" transform="translate(-2.3957949,5.2458614)">
    <path d="m5.13-4.3c2.47-1.11 5.9 0 7.2 1.96l5.95 11.95c1.26 2 0.9 4.24-0.81 5.13-1.71 0.88-4.11 0.02-5.37-1.94L3.61 2.27C2.34 0.3 2.71-3.22 5.13-4.3z" id="path7966" class="s1"/>
    <path d="m5.89-3.1c2.03-0.99 4.03-0.24 5.3 1.69l3.4 6.8 3 5.91-3.47 1.79L6.79 4.1 5 1.97C3.8 0 3.8-2.08 5.89-3.1z" id="path14575" style="fill:none;opacity:0.4;stroke-linecap:round;stroke-width:1;stroke:#63883b"/>
    <path d="m16.36 22.16c-1.14 5.4 0.9 17.6 8.9 24.8 6.2 0.2 19.98-4.3 29.31-12.84C41.42 28.4 32.4 14.3 25.4 17.4l-9.07 4.77z" id="path7968" style="fill:none;stroke-width:1;stroke:#63883b"/>
    <path d="m18.58 24.15c3.35 7.9 3.5 16.1 10.3 22.6" id="path7972" class="s1"/>
    <path d="m17.99 22.95c-1.3 0.64-0.23 15.8 8 22.67C36.5 45.4 48.1 37.6 52.2 34.5 38.7 26.9 30.9 15.9 25.8 18.65l-7.85 4.3z" id="path7970" style="fill:none;opacity:0.5;stroke-width:1;stroke:#63883b"/>
    <path d="m29.31 21.51c1.24-0.94 8.2 7.7 21.4 15.59M20.98 22.25c5.3 6.7 4.2 15.7 12.6 22.77M28.07 22.14c0 0 11.7 16.5 16 19.02M22.81 21.42C27.74 25.1 35.2 39.3 39 43.4" id="path7974" class="s1"/>
    <path d="M7.41 16.2 23.8 7.94c0.85 3-0.49 4.1 2.6 9L15.04 22.65C12.97 18.3 9.9 18.4 7.4 16.2z" id="path7982" style="fill:none;stroke-linecap:round;stroke-linejoin:round;stroke-width:1;stroke:#63883b"/>
    <path d="M15.31 20.21C14.15 18.4 11.7 17.4 10.1 16.28l12.5-6.21c-0.03 1.9 0.8 3.9 1.2 5.69l-8.5 4.46z" id="path11655" style="fill:none;opacity:0.2;stroke-width:1;stroke:#63883b"/>
    <rect id="rect7984" width="18.1" height="4.5" x="-2.4" y="23.5" rx="1.4" ry="1.3" transform="matrix(0.89109357,-0.45381962,0.54764128,0.83671323,0,0)" class="s1"/>
    <path id="path10193" d="m-17.17 4.08a2.15 2.1 0 1 1-4.29 0 2.1 2.1 0 1 1 4.3 0z" transform="matrix(0.83320802,0.1969366,-0.22325796,0.73497568,24.466541,-0.0466679)" style="fill:none;stroke-linecap:round;stroke-linejoin:round;stroke-width:1.2;stroke:#63883b"/>
    <path d="m34.86 44.53c0 0 2.15-0.63 3.11-1.19-1.77-2.45-4.86-7.43-7.71-11.18 1.7 8.2 4.6 12.4 4.6 12.37zM39.72 42.65l2.89-1.37C39.84 38.9 31.9 28.5 31.9 28.54l7.77 14.11zM46.17 39.29l3.48-2.2C45.11 35.4 33.1 24.6 33.1 24.65c3.4 3.8 9.7 10.8 13.1 14.64zM51.16 36.17l2.42-1.78c-4.73-1.89-17.84-12.48-17.84-12.48 0 0 8.7 11.6 15.4 14.26zM30.06 45.81c0 0 1.71-0.35 2.92-0.57-2.08-1.56-5.43-5.59-7.27-10.85 0.8 8.7 4.4 11.4 4.4 11.42zM25.77 46.32c0 0 1.78-0.02 1.78-0.02-3.28-3.17-4.48-6.76-6.33-11.85-0.19 5.9 4.5 11.9 4.5 11.86z" id="path3558" class="s2"/>
  </g>
</svg>
