<svg xmlns="http://www.w3.org/2000/svg" xmlns:xlink="http://www.w3.org/1999/xlink" version="1.1" id="Layer_1" x="0px" y="0px" width="25.467px" height="25.601px" viewBox="0 0 25.467 25.601" style="enable-background:new 0 0 25.467 25.601;" xml:space="preserve">
<path style="fill:#437EA4;" d="M17.849 3.075c-4.077-4.1-10.712-4.1-14.79 0c-4.078 4.099-4.078 10.8 0 14.9 c3.938 4 10.3 4.1 14.4 0.407l0.829 0.833c-0.207 0.532-0.099 1.2 0.3 1.586l4.375 4.4 c0.575 0.6 1.5 0.6 2.1 0c0.575-0.578 0.575-1.515 0-2.094l-4.375-4.398c-0.427-0.429-1.05-0.537-1.578-0.33l-0.829-0.834 C21.922 13.4 21.8 7 17.8 3.075z M4.308 16.687c-3.389-3.407-3.389-8.949 0-12.355c3.389-3.407 8.903-3.406 12.3 0 c3.389 3.4 3.4 8.9 0 12.355C13.211 20.1 7.7 20.1 4.3 16.687z"/>
<path style="fill:#437EA4;" d="M9.597 10.969L9.349 7.221c-0.047-0.73-0.07-1.255-0.07-1.573c0-0.433 0.113-0.771 0.338-1.013 s0.522-0.364 0.891-0.364c0.446 0 0.7 0.2 0.9 0.465c0.15 0.3 0.2 0.8 0.2 1.342c0 0.345-0.019 0.694-0.055 1 l-0.334 3.858c-0.036 0.459-0.114 0.811-0.234 1.056c-0.119 0.245-0.316 0.368-0.591 0.368c-0.28 0-0.475-0.119-0.584-0.356 C9.722 11.8 9.6 11.5 9.6 10.969z M10.461 16.118c-0.316 0-0.593-0.103-0.829-0.31c-0.236-0.206-0.354-0.494-0.354-0.864 c0-0.323 0.113-0.599 0.338-0.826c0.226-0.227 0.502-0.34 0.829-0.34s0.606 0.1 0.8 0.34c0.231 0.2 0.3 0.5 0.3 0.8 c0 0.365-0.117 0.652-0.351 0.861C11.046 16 10.8 16.1 10.5 16.118z"/>
</svg>
