<svg xmlns:dc="http://purl.org/dc/elements/1.1/" xmlns:cc="http://creativecommons.org/ns#" xmlns:rdf="http://www.w3.org/1999/02/22-rdf-syntax-ns#" xmlns:svg="http://www.w3.org/2000/svg" xmlns="http://www.w3.org/2000/svg" xmlns:sodipodi="http://sodipodi.sourceforge.net/DTD/sodipodi-0.dtd" xmlns:inkscape="http://www.inkscape.org/namespaces/inkscape" version="1.1" id="Layer_1" x="0px" y="0px" width="52.7" height="52.7" viewBox="0 0 52.719001 52.719002" enable-background="new 0 0 99.818 100" xml:space="preserve" inkscape:version="0.48.4 r9939">
  <metadata id="metadata15">
    <rdf:RDF>
      <cc:Work rdf:about="">
        <dc:format>image/svg+xml</dc:format>
        <dc:type rdf:resource="http://purl.org/dc/dcmitype/StillImage"/>
      </cc:Work>
    </rdf:RDF>
  </metadata>
  <defs id="defs13"/>
  <g id="g3" transform="translate(-3.9672852e-7,-47.281)">
    <path d="m 49.2 47.3 h -21 c -1.9 0 -3.5 1.6 -3.5 3.5 v 12.9 c 0 1.9 1.6 3.5 3.5 3.5 h 0.7 c -0.4 1.2 -1.2 2.9 -2.5 3.7 -0.5 0.3 -0.7 0.8 -0.5 1.4 0.2 0.5 0.6 0.8 1.1 0.8 0 0 0 -0 0.1 -0 0.3 -0 7.7 -0.5 10.1 -5.9 h 12.2 c 0.1 0 0.1 -0 0.2 -0 C 51.3 67 52.7 65.5 52.7 63.7 V 50.8 c 0 -1.9 -1.6 -3.5 -3.5 -3.5 z m 1.2 16.4 c 0 0.6 -0.5 1.2 -1.2 1.2 H 36.4 c -0.5 0 -1 0.3 -1.1 0.8 -0.8 2.4 -3.1 3.7 -5 4.4 1 -1.8 1.3 -3.7 1.3 -3.8 0.1 -0.3 -0 -0.7 -0.3 -0.9 -0.2 -0.3 -0.5 -0.4 -0.9 -0.4 h -2.3 c -0.6 0 -1.2 -0.5 -1.2 -1.2 V 50.8 c 0 -0.6 0.5 -1.2 1.2 -1.2 l 21 0 c 0.6 0 1.2 0.5 1.2 1.2 V 63.7 z" id="path5" style="fill:#63883b;fill-opacity:1" inkscape:connector-curvature="0"/>
    <circle cx="30" cy="47.8" r="11.1" id="circle7" style="fill:#63883b;fill-opacity:1" transform="matrix(0.52815124,0,0,0.52719,0,47.281)" d="m 41.110001,47.778999 c 0,6.136436 -4.974565,11.111 -11.111,11.111 -6.136436,0 -11.111001,-4.974564 -11.111001,-11.111 0,-6.136436 4.974565,-11.111 11.111001,-11.111 6.136435,0 11.111,4.974564 11.111,11.111 z"/>
    <path d="m 43.4 93.6 c 0 -1.6 -1.3 -2.9 -2.9 -2.9 l -0.1 0 c -2.4 -0 -2.5 -0.1 -2.5 0 l -5.4 0 -6.2 -8.2 c -0.6 -0.7 -1.4 -1.2 -2.3 -1.2 l -13.6 0 -4.6 -7.3 0 -12 c 0 -1.6 -1.3 -2.9 -2.9 -2.9 C 1.3 59 0 60.3 0 61.9 l 0 12.9 c 0 0.5 0.2 1.1 0.4 1.6 l 4.8 11.4 0 5.8 0 6.4 20 0 0 -9.4 3.5 4.7 c 0.6 0.7 1.4 1.2 2.3 1.2 l 8.6 0 1.5 0 c -3.6 -0.3 -0.3 0.2 0.8 -0.5 0.8 -0.5 1.4 -1.4 1.4 -2.5 z" id="path9" inkscape:connector-curvature="0" style="fill:#63883b;fill-opacity:1"/>
  </g>
</svg>
