<?xml version="1.0" standalone="no"?>
<!DOCTYPE svg PUBLIC "-//W3C//DTD SVG 1.1//EN" "http://www.w3.org/Graphics/SVG/1.1/DTD/svg11.dtd" >
<svg xmlns="http://www.w3.org/2000/svg">
<metadata></metadata>
<defs>
<font id="na_oe_proregular" horiz-adv-x="0" >
<font-face units-per-em="2048" ascent="1638" descent="-410" />
<missing-glyph horiz-adv-x="530" />
<glyph unicode="&#xfb01;" horiz-adv-x="1171" d="M1028 1001v-1001h-207v836h-420v-836h-206v836h-136v155l136 10v127q0 163 77.5 256t237.5 93q88 0 176 -35l-43 -156q-55 25 -108 25q-134 0 -134 -181v-129h627zM928 1190q-59 0 -97 34.5t-38 88.5q0 55 38 89t97 34q58 0 94.5 -34t36.5 -89q0 -54 -37 -88.5t-94 -34.5 z" />
<glyph unicode="&#xfb02;" horiz-adv-x="1173" d="M188 1128q0 162 78 255.5t238 93.5q88 0 176 -35l-41 -156q-58 25 -111 25q-133 0 -133 -181v-129h203v-165h-203v-836h-207v836h-135v155l135 10v127zM987 1452v-1231q0 -67 41 -71q14 -6 45 0l27 -156q-51 -19 -113 -19q-109 0 -158 65.5t-49 192.5v1219h207z" />
<glyph horiz-adv-x="2048" />
<glyph horiz-adv-x="2048" />
<glyph unicode="&#xd;" horiz-adv-x="2048" />
<glyph unicode=" "  horiz-adv-x="530" />
<glyph unicode="&#x09;" horiz-adv-x="530" />
<glyph unicode="&#xa0;" horiz-adv-x="530" />
<glyph unicode="!" horiz-adv-x="409" d="M94 1169l201 -14v-309q0 -48 -12.5 -226t-24.5 -258l-119 17q-12 108 -23 232t-16.5 197.5t-5.5 86.5v274zM125 219l174 -20l2 -21q6 -61 -12 -186l-23 -6l-172 18v23q0 35 3 97.5t3 86.5z" />
<glyph unicode="&#x22;" horiz-adv-x="708" d="M188 1243l150 -49v-35q-27 -108 -90 -237.5t-127 -192.5l-60 33l99 481h28zM494 1243l151 -49v-35q-29 -111 -91.5 -239.5t-125.5 -190.5l-59 33l98 481h27z" />
<glyph unicode="#" horiz-adv-x="1169" d="M956 1079l-57 -295h176v-100l-198 -16l-50 -236h189v-102l-213 -17l-62 -290h-143l61 290h-249l-56 -290h-145l55 290h-170v119h197l47 234h-188v118h215l55 295h147l-61 -295h250l57 295h143zM731 668h-252l-47 -238h250z" />
<glyph unicode="$" horiz-adv-x="935" d="M508 1167v-65q261 -22 303 -262l-164 -25q-25 135 -139 160v-344q88 -24 145.5 -49.5t101.5 -62.5t63.5 -87.5t19.5 -120.5q0 -142 -94 -232t-236 -99v-134h-82v131q-159 22 -241.5 102t-96.5 222l166 25q27 -196 172 -220v388q-311 67 -311 307q0 136 83.5 212.5 t227.5 88.5v65h82zM426 977q-69 -10 -109.5 -54.5t-40.5 -107.5q0 -62 34.5 -103t115.5 -65v330zM508 106q73 7 119.5 60.5t46.5 128.5q0 67 -36.5 107.5t-129.5 70.5v-367z" />
<glyph unicode="%" horiz-adv-x="1345" d="M827 1241l123 -78l-426 -1163l-137 45zM311 1237q112 0 177 -91.5t65 -248.5q0 -71 -13 -129.5t-40.5 -106t-76.5 -74t-116 -26.5q-116 0 -177.5 90.5t-61.5 245.5q0 95 24.5 169.5t80.5 122.5t138 48zM309 1126q-100 0 -100 -229t100 -229q57 0 79 57.5t22 171.5 t-22 171.5t-79 57.5zM1032 662q112 0 178 -91.5t66 -248.5q0 -71 -13 -129t-40.5 -106t-76.5 -74.5t-116 -26.5q-116 0 -179 91t-63 245q0 95 24.5 169.5t81 122.5t138.5 48zM1032 553q-100 0 -100 -231q0 -230 100 -230q55 0 76.5 58t21.5 172q0 115 -21.5 173t-76.5 58z " />
<glyph unicode="&#x26;" horiz-adv-x="1337" d="M1157 -14q-106 71 -209 180q-172 -178 -413 -178q-103 0 -188 33.5t-139 88.5t-83 123t-29 140q0 250 334 397q-92 103 -125 169t-33 132q0 124 97 210.5t247 86.5q148 0 240 -82t92 -201q0 -97 -66.5 -178t-199.5 -153q193 -239 256 -312q43 79 68 187l174 -39 q-37 -144 -115 -277q26 -27 58.5 -62t47 -49.5t41 -36t60.5 -44.5zM614 1239q-66 0 -113.5 -45t-47.5 -109q0 -42 25.5 -82.5t113.5 -144.5q105 60 143.5 111t38.5 114q0 67 -45.5 111.5t-114.5 44.5zM516 668q-127 -78 -176 -144.5t-49 -140.5q0 -94 70 -173t186 -79 q75 0 155 45t132 119q-168 192 -318 373z" />
<glyph unicode="'" horiz-adv-x="358" d="M160 1243l147 -49v-35q-27 -109 -89 -238.5t-126 -191.5l-59 33l98 481h29z" />
<glyph unicode="(" horiz-adv-x="669" d="M588 1427q-58 -44 -127 -175.5t-122.5 -325t-53.5 -369.5q0 -235 89.5 -491t209.5 -373q-6 -9 -30 -41.5t-26 -34.5q-199 157 -317.5 398t-118.5 542q0 287 120.5 542.5t319.5 399.5z" />
<glyph unicode=")" horiz-adv-x="677" d="M145 1499q199 -144 320 -399.5t121 -542.5q0 -301 -118.5 -542t-317.5 -398q-2 2 -26 34.5t-30 41.5q78 76 146.5 219.5t109.5 316.5t41 328q0 176 -53 369.5t-121.5 325t-126.5 175.5z" />
<glyph unicode="*" horiz-adv-x="630" d="M360 1444q0 -29 -16 -120.5t-18 -106.5q11 5 51.5 28t83.5 45.5t76 34.5l36 -119q-69 -23 -229 -39q118 -106 166 -161l-98 -70q-14 18 -35 56.5t-45 85t-31 59.5q-5 -8 -47 -93t-59 -108l-99 70q40 51 90 97.5t74 63.5q-182 24 -227 39l37 119q72 -28 204 -108 q-3 33 -18 122.5t-16 104.5h120z" />
<glyph unicode="+" horiz-adv-x="964" d="M557 946v-311h315v-148h-315v-315h-145v315h-320l39 148h281v311h145z" />
<glyph unicode="," horiz-adv-x="372" d="M150 211l145 -49v-35q-22 -105 -86.5 -235.5t-128.5 -194.5l-60 33l101 473z" />
<glyph unicode="-" horiz-adv-x="659" d="M86 659l131 -20h377v-156h-426l-115 21z" />
<glyph unicode="." horiz-adv-x="397" d="M123 219l176 -20l2 -21q5 -76 -14 -186l-21 -6l-172 18v23q4 133 2 184z" />
<glyph unicode="/" horiz-adv-x="802" d="M645 1423l135 -88l-608 -1665l-147 54z" />
<glyph unicode="0" horiz-adv-x="997" d="M498 1174q96 0 171 -35t121.5 -91.5t76.5 -135.5t41.5 -160.5t11.5 -173.5q0 -98 -13.5 -183.5t-45 -163.5t-79.5 -133.5t-121.5 -88t-166.5 -32.5q-140 0 -235 78t-138 210.5t-43 312.5q0 100 13.5 186.5t45 163t79 130.5t119.5 85t163 31zM498 1053q-60 0 -102 -33.5 t-65.5 -98t-33.5 -148t-10 -195.5q0 -111 9.5 -193.5t32.5 -149t65.5 -101t103.5 -34.5t103 33.5t66 99.5t34 149.5t10 195.5t-9.5 193.5t-32.5 148t-65.5 100t-105.5 33.5z" />
<glyph unicode="1" horiz-adv-x="681" d="M406 1155h65v-1022l154 -35l-17 -98h-530l-10 94l213 37v854h-211l-13 70z" />
<glyph unicode="2" horiz-adv-x="890" d="M82 1040q60 54 153.5 94t206.5 40q171 0 277 -91.5t106 -234.5q0 -63 -23 -124t-68.5 -119.5t-92.5 -105t-115 -104.5q-76 -68 -146 -142t-93 -116h522v-137h-746l-16 63q50 155 277 373q143 128 223 227.5t80 184.5q0 88 -54 139t-143 51q-84 0 -192 -59l-23 -115h-133 v176z" />
<glyph unicode="3" horiz-adv-x="876" d="M799 1147l16 -117l-350 -352q65 -8 120.5 -29t102 -56.5t73.5 -91.5t27 -126q0 -84 -37.5 -155t-99.5 -120.5t-146.5 -87t-174 -58.5t-187.5 -30l-32 117q89 16 167.5 42t151 65t115.5 98t43 129q0 200 -326 229v86l301 314h-325l-140 -33l-37 157l115 19h623z" />
<glyph unicode="4" horiz-adv-x="950" d="M18 481q117 130 220 326t163 387l183 -51q-44 -161 -146.5 -336.5t-214.5 -306.5h387v102q0 15 17 65.5t34 94.5l17 43l106 -14v-291h134l-27 -144h-107v-245l23 -138l-176 -34l-21 102v315h-575z" />
<glyph unicode="5" horiz-adv-x="864" d="M754 1174l32 -160l-114 -19h-353l-30 -305q236 6 360.5 -72t124.5 -243q0 -84 -38.5 -154t-101.5 -119t-150.5 -86.5t-178 -58.5t-190.5 -33l-27 117q90 16 169 42t153 65t117.5 98t43.5 129q0 53 -20 90.5t-54 60.5t-92.5 36t-122 17.5t-155.5 4.5l16 563h475z" />
<glyph unicode="6" horiz-adv-x="927" d="M670 1106q-173 -80 -286.5 -214.5t-117.5 -277.5q33 68 101 104t153 36q162 0 265.5 -104.5t103.5 -274.5q0 -186 -116.5 -295t-285.5 -109q-188 0 -302.5 136t-114.5 348q0 258 134 455.5t398 297.5zM483 621q-96 0 -155.5 -71.5t-59.5 -174.5q0 -120 63.5 -197.5 t155.5 -77.5q97 0 152 75t55 194q0 110 -57 181t-154 71z" />
<glyph unicode="7" horiz-adv-x="868" d="M811 1147l20 -117q-163 -169 -287.5 -462.5t-144.5 -567.5h-188q2 236 118.5 522t295.5 482h-412l-141 -33l-35 157l115 19h659z" />
<glyph unicode="8" horiz-adv-x="933" d="M469 1186q164 0 271.5 -80.5t107.5 -214.5q0 -79 -52.5 -158t-129.5 -119q101 -47 156 -116t55 -176q0 -155 -114 -254t-296 -99q-82 0 -155 21.5t-130.5 63.5t-91 109.5t-33.5 153.5q0 98 55 175t150 126q-174 91 -174 252q0 145 108 230.5t273 85.5zM463 1065 q-82 0 -137.5 -51t-55.5 -117q0 -30 14.5 -58t43 -52t54.5 -42t65 -35.5t56 -25t46 -18.5q115 76 115 213q0 80 -54.5 133t-146.5 53zM379 567q-25 -19 -42.5 -35t-43 -46t-39.5 -70t-14 -86q0 -113 68.5 -173.5t160.5 -60.5q100 0 160.5 62.5t60.5 146.5q0 29 -10 55.5 t-22.5 46.5t-38 40t-43.5 32.5t-51.5 28.5t-50 22.5t-52 20t-43.5 16.5z" />
<glyph unicode="9" horiz-adv-x="927" d="M248 43q171 83 290.5 216t125.5 271q-81 -139 -258 -139q-162 0 -264.5 105.5t-102.5 273.5q0 109 46 198t139.5 144t219.5 55q184 0 298 -134t114 -339q0 -120 -30 -227.5t-93.5 -207.5t-172.5 -184t-259 -145zM442 1044q-93 0 -152 -75.5t-59 -186.5 q0 -113 57.5 -184.5t155.5 -71.5q93 0 154 71.5t61 176.5q0 104 -59 187t-158 83z" />
<glyph unicode=":" horiz-adv-x="413" d="M133 934l176 -23v-20q7 -69 -10 -186l-23 -5l-172 17l-2 24q1 19 4 86.5t3 98.5zM135 219l174 -20v-19q6 -80 -10 -188l-23 -2l-170 18l-4 21q7 115 7 186z" />
<glyph unicode=";" horiz-adv-x="450" d="M158 936l174 -21l4 -18q3 -74 -14 -188l-23 -2l-168 18l-4 20q6 94 6 187zM170 211l147 -49v-35q-24 -107 -87.5 -236.5t-127.5 -193.5l-59 33l98 473z" />
<glyph unicode="&#x3c;" horiz-adv-x="1105" d="M999 1071v-166l-708 -287l708 -286v-164l-890 375v153z" />
<glyph unicode="=" horiz-adv-x="933" d="M864 721v-146h-794l41 146h753zM864 547v-141h-794l41 141h753z" />
<glyph unicode="&#x3e;" horiz-adv-x="1105" d="M109 1071l890 -375v-153l-890 -375v164l702 286l-702 287v166z" />
<glyph unicode="?" horiz-adv-x="870" d="M92 1059q56 52 141.5 90.5t188.5 38.5q160 0 259 -77.5t99 -199.5q0 -47 -16.5 -90.5t-43 -79t-58.5 -70t-65 -69t-61 -70t-47 -79.5t-22 -91l-98 17q-4 52 3 95t29.5 84t37.5 62t49 63q2 3 3.5 5t4 5t4.5 5q46 60 67 101.5t21 95.5q0 164 -168 164q-81 0 -174 -60 l-23 -106h-131v166zM342 219l176 -20l2 -21q4 -63 -10 -186l-29 -6l-166 18l-2 23q0 15 3 84.5t3 99.5z" />
<glyph unicode="@" horiz-adv-x="1857" d="M1772 23q-63 -98 -168.5 -182.5t-245.5 -137.5q-149 -53 -359 -53q-435 0 -667 244q-228 218 -228 571q0 236 105.5 451.5t298.5 338.5q190 121 477 121q174 0 318 -55t239 -150t147 -222.5t52 -272.5q0 -119 -42.5 -233.5t-111.5 -198.5t-158 -139t-180 -64 q-112 -11 -159 45q-19 8 -29.5 33t-20.5 74q-130 -162 -276 -162q-98 0 -172.5 57.5t-112 148.5t-37.5 197q0 147 65.5 283t171.5 218.5t218 82.5q173 0 274 -187l33 158h148l-129 -635q-26 -94 -12 -141.5t81 -40.5q84 8 161.5 82.5t124 189t46.5 234.5q0 136 -53.5 248.5 t-143.5 186t-207 113.5t-245 40q-212 0 -387.5 -101.5t-268.5 -285.5q-98 -177 -98 -402q0 -145 41 -265t112.5 -202.5t170 -139t211.5 -82.5t239 -26q209 0 369.5 71.5t257.5 189.5h150zM913 899q-71 0 -131.5 -46t-99 -118t-60.5 -156t-22 -163q0 -122 57.5 -196.5 t139.5 -74.5q51 0 104 29.5t98 85.5q55 59 89 166.5t34 212.5q0 119 -60 189.5t-149 70.5z" />
<glyph unicode="A" horiz-adv-x="1179" d="M817 383h-465l-114 -383h-213l444 1341h242l444 -1341h-223zM770 549l-53 180q-50 155 -129 447h-8q-60 -246 -125 -447l-54 -180h369z" />
<glyph unicode="B" horiz-adv-x="1204" d="M166 1341h416q218 0 343.5 -78.5t125.5 -250.5q0 -102 -59 -182t-173 -109v-8q305 -51 305 -320q0 -193 -139.5 -293t-372.5 -100h-446v1341zM555 778q291 0 291 211q0 98 -70 143.5t-215 45.5h-188v-400h182zM588 164q332 0 332 242q0 221 -332 221h-215v-463h215z" />
<glyph unicode="C" horiz-adv-x="1179" d="M1112 170q-165 -195 -414 -195q-128 0 -237.5 47t-190 134t-126.5 219t-46 293q0 160 47 292.5t129.5 220.5t194 136.5t240.5 48.5q115 0 210 -47t164 -121l-116 -131q-114 117 -256 117q-179 0 -288.5 -138t-109.5 -372q0 -238 105.5 -377t283.5 -139q167 0 293 139z " />
<glyph unicode="D" horiz-adv-x="1259" d="M166 1341h346q312 0 478.5 -170t166.5 -495q0 -326 -165.5 -501t-467.5 -175h-358v1341zM500 170q216 0 330 128.5t114 377.5q0 248 -113 371.5t-331 123.5h-127v-1001h127z" />
<glyph unicode="E" horiz-adv-x="1077" d="M166 1341h790v-176h-583v-377h493v-176h-493v-436h604v-176h-811v1341z" />
<glyph unicode="F" horiz-adv-x="1011" d="M166 1341h792v-176h-585v-411h497v-176h-497v-578h-207v1341z" />
<glyph unicode="G" horiz-adv-x="1271" d="M1145 133q-71 -71 -182.5 -114.5t-241.5 -43.5q-134 0 -247 47t-195 134t-128.5 218.5t-46.5 293.5q0 160 47.5 292.5t132 220.5t199.5 136.5t250 48.5q233 0 393 -168l-116 -131q-55 56 -119.5 86.5t-155.5 30.5q-190 0 -304 -137.5t-114 -372.5q0 -242 110.5 -379 t315.5 -137q64 0 121 17.5t92 49.5v316h-266v172h455v-580z" />
<glyph unicode="H" horiz-adv-x="1325" d="M166 1341h207v-548h577v548h209v-1341h-209v610h-577v-610h-207v1341z" />
<glyph unicode="I" horiz-adv-x="538" d="M166 1341h207v-1341h-207v1341z" />
<glyph unicode="J" horiz-adv-x="1005" d="M217 303q78 -145 217 -145q102 0 151.5 63t49.5 207v913h211v-931q0 -92 -23 -169.5t-69 -137.5t-121.5 -94t-173.5 -34q-264 0 -389 224z" />
<glyph unicode="K" horiz-adv-x="1206" d="M166 1341h207v-636h6l514 636h231l-413 -518l483 -823h-231l-379 659l-211 -253v-406h-207v1341z" />
<glyph unicode="L" horiz-adv-x="995" d="M166 1341h207v-1165h571v-176h-778v1341z" />
<glyph unicode="M" horiz-adv-x="1486" d="M166 1341h233l250 -686l94 -262h9l88 262l247 686h234v-1341h-197v666q0 121 29 413h-8l-111 -301l-241 -649h-105l-244 649l-106 301h-8q2 -24 8.5 -95.5t9.5 -113.5t6.5 -101.5t3.5 -102.5v-666h-192v1341z" />
<glyph unicode="N" horiz-adv-x="1312" d="M166 1341h213l446 -792l142 -283h8q-2 32 -8 104.5t-9.5 118t-6.5 109.5t-3 115v628h199v-1341h-215l-447 793l-141 280h-8q26 -297 26 -438v-635h-196v1341z" />
<glyph unicode="O" horiz-adv-x="1363" d="M682 -25q-261 0 -422.5 190t-161.5 511q0 319 161 504.5t423 185.5t423 -186t161 -504q0 -321 -161.5 -511t-422.5 -190zM682 158q168 0 268.5 141t100.5 377q0 235 -100.5 371.5t-268.5 136.5t-268.5 -136.5t-100.5 -371.5q0 -236 100.5 -377t268.5 -141z" />
<glyph unicode="P" horiz-adv-x="1189" d="M166 1341h432q504 0 504 -405q0 -107 -37.5 -189.5t-105 -133.5t-158.5 -77t-203 -26h-225v-510h-207v1341zM580 678q160 0 237.5 63t77.5 195q0 130 -76.5 184t-238.5 54h-207v-496h207z" />
<glyph unicode="Q" horiz-adv-x="1374" d="M1307 -309q-84 -35 -205 -35q-186 0 -320 89.5t-200 238.5q-220 36 -352 220t-132 472q0 319 161 504.5t423 185.5t423 -186t161 -504q0 -281 -124.5 -462.5t-336.5 -223.5q44 -81 128.5 -121.5t190.5 -40.5q70 0 144 20zM682 1184q-168 0 -268.5 -136.5t-100.5 -371.5 q0 -243 100.5 -386t268.5 -143t268.5 143t100.5 386q0 235 -100.5 371.5t-268.5 136.5z" />
<glyph unicode="R" horiz-adv-x="1204" d="M897 0l-303 543h-221v-543h-207v1341h436q483 0 483 -389q0 -150 -74.5 -246.5t-207.5 -134.5l330 -571h-236zM373 711h205q148 0 225.5 60.5t77.5 180.5q0 119 -75.5 170.5t-227.5 51.5h-205v-463z" />
<glyph unicode="S" horiz-adv-x="1099" d="M203 317q72 -73 166.5 -116t189.5 -43q120 0 187 51.5t67 140.5q0 25 -6 47t-14 38.5t-26 33t-30.5 26.5t-41 25t-44 22t-51.5 23l-188 80q-271 116 -271 352q0 158 124 263.5t313 105.5q117 0 223 -45.5t184 -124.5l-111 -133q-134 121 -296 121q-102 0 -164 -46.5 t-62 -127.5q0 -41 16.5 -73t52.5 -57t65 -39t83 -36l185 -78q132 -57 202 -139.5t70 -220.5q0 -167 -127.5 -279.5t-341.5 -112.5q-137 0 -261.5 52t-217.5 145z" />
<glyph unicode="T" horiz-adv-x="1110" d="M451 1165h-396v176h1000v-176h-396v-1165h-208v1165z" />
<glyph unicode="U" horiz-adv-x="1312" d="M160 1341h209v-780q0 -111 21 -191t60.5 -125.5t90 -66t116.5 -20.5q295 0 295 403v780h201v-768q0 -598 -496 -598q-114 0 -202.5 32.5t-156 102t-103 186.5t-35.5 277v768z" />
<glyph unicode="V" horiz-adv-x="1101" d="M6 1341h223l199 -696q20 -67 59 -210.5t66 -227.5h8q5 16 121 438l199 696h213l-418 -1341h-248z" />
<glyph unicode="W" horiz-adv-x="1630" d="M43 1341h215l127 -700q11 -71 35.5 -214.5t36.5 -215.5h8q54 266 90 430l174 700h184l174 -700q18 -82 53 -244t40 -186h8q6 36 31 192t38 238l127 700h201l-266 -1341h-256l-182 750q-41 184 -62 307h-8q-18 -102 -63 -307l-179 -750h-252z" />
<glyph unicode="X" horiz-adv-x="1087" d="M416 692l-361 649h232l164 -317q19 -35 53.5 -104.5t48.5 -96.5h8q63 144 92 201l158 317h221l-360 -659l385 -682h-232l-178 336q-53 102 -110 217h-9q-44 -97 -102 -217l-174 -336h-221z" />
<glyph unicode="Y" horiz-adv-x="1026" d="M408 508l-404 833h223l160 -358q108 -257 123 -293h8q9 21 56.5 128t70.5 165l158 358h217l-402 -833v-508h-210v508z" />
<glyph unicode="Z" horiz-adv-x="1107" d="M88 125l672 1040h-610v176h870v-124l-674 -1041h680v-176h-938v125z" />
<glyph unicode="[" horiz-adv-x="532" d="M489 1477h5v-93l-220 -38v-1577l220 -41v-90h-371q-31 0 -31 36v1758q0 24 10.5 34.5t34.5 10.5h352z" />
<glyph unicode="\" horiz-adv-x="935" d="M225 1423l623 -1699l-148 -54l-608 1665z" />
<glyph unicode="]" horiz-adv-x="581" d="M446 1477q25 0 35.5 -10t10.5 -35v-1758q0 -36 -31 -36h-369v90l217 41v1577l-217 38v93h354z" />
<glyph unicode="^" horiz-adv-x="894" d="M506 1370l321 -721h-159l-217 551l-220 -551h-159l315 721h119z" />
<glyph unicode="_" horiz-adv-x="882" d="M100 -35h709v-125h-746z" />
<glyph unicode="`" horiz-adv-x="667" d="M328 1405l139 -272h-162l-225 272h248z" />
<glyph unicode="a" horiz-adv-x="1048" d="M721 115q-169 -140 -320 -140q-132 0 -214.5 79t-82.5 210q0 162 144 250.5t457 122.5q0 98 -45 159.5t-146 61.5q-127 0 -289 -102l-80 139q202 131 404 131q182 0 272 -110t90 -314v-602h-170l-16 115h-4zM705 506q-216 -27 -307 -81.5t-91 -143.5q0 -71 42.5 -106.5 t113.5 -35.5q63 0 119 29t123 90v248z" />
<glyph unicode="b" horiz-adv-x="1136" d="M152 1452h206v-385l-4 -172q148 131 299 131q188 0 292 -137t104 -371q0 -125 -35.5 -229.5t-95.5 -172t-137.5 -104.5t-162.5 -37q-68 0 -141 32.5t-137 92.5h-6l-17 -100h-165v1452zM358 240q107 -93 222 -93q112 0 184 97.5t72 269.5q0 340 -238 340q-114 0 -240 -123 v-491z" />
<glyph unicode="c" horiz-adv-x="944" d="M895 104q-69 -61 -155 -95t-173 -34q-208 0 -342.5 141t-134.5 384q0 122 40 222.5t108 166t157 101.5t189 36q167 0 293 -119l-101 -131q-93 80 -184 80q-128 0 -208.5 -98.5t-80.5 -257.5t79 -257t204 -98q115 0 219 93z" />
<glyph unicode="d" horiz-adv-x="1140" d="M797 113q-61 -61 -137.5 -99.5t-155.5 -38.5q-190 0 -302 139.5t-112 385.5q0 119 36 219.5t95.5 166.5t137 103t161.5 37q81 0 142.5 -27.5t128.5 -85.5l-11 166v373h209v-1452h-170l-16 113h-6zM780 762q-100 92 -219 92q-109 0 -182.5 -96.5t-73.5 -255.5 q0 -170 64.5 -262.5t183.5 -92.5q122 0 227 123v492z" />
<glyph unicode="e" horiz-adv-x="1024" d="M907 82q-158 -107 -336 -107q-211 0 -349 142t-138 383q0 118 38.5 219t102.5 167t145.5 103t168.5 37q194 0 300.5 -128t106.5 -345q0 -69 -8 -102h-653q13 -147 97.5 -230.5t215.5 -83.5q120 0 240 76zM768 584q0 134 -57.5 207t-165.5 73q-100 0 -174 -74t-88 -206 h485z" />
<glyph unicode="f" horiz-adv-x="641" d="M639 1286q-55 25 -111 25q-131 0 -131 -181v-129h203v-165h-203v-836h-207v836h-135v155l135 10v127q0 162 78 255.5t238 93.5q88 0 176 -35z" />
<glyph unicode="g" horiz-adv-x="1052" d="M662 143q181 0 270.5 -58.5t89.5 -184.5q0 -149 -144 -250t-378 -101q-187 0 -301.5 69t-114.5 196q0 63 38 119.5t107 99.5v8q-90 58 -90 166q0 56 32 104.5t79 81.5v8q-56 42 -93.5 112.5t-37.5 154.5q0 163 112.5 260.5t274.5 97.5q75 0 145 -25h355v-155h-193 q68 -71 68 -184q0 -160 -106.5 -252.5t-268.5 -92.5q-71 0 -141 31q-56 -49 -56 -106q0 -99 168 -99h185zM506 451q81 0 135.5 59.5t54.5 157.5t-54 155.5t-136 57.5t-136.5 -57.5t-54.5 -155.5t55 -157.5t136 -59.5zM481 -23q-71 0 -133 15q-88 -65 -88 -148q0 -73 72 -115 t198 -42q127 0 209 53.5t82 126.5q0 61 -45.5 85.5t-140.5 24.5h-154z" />
<glyph unicode="h" horiz-adv-x="1120" d="M152 1452h206v-385l-8 -199q80 75 156.5 116.5t171.5 41.5q305 0 305 -395v-631h-207v604q0 130 -40 187t-130 57q-67 0 -121 -32t-127 -105v-711h-206v1452z" />
<glyph unicode="i" horiz-adv-x="520" d="M262 1190q-58 0 -96.5 34.5t-38.5 88.5q0 55 38.5 89t96.5 34t95.5 -34t37.5 -89q0 -54 -38 -88.5t-95 -34.5zM156 1001h206v-1001h-206v1001z" />
<glyph unicode="j" horiz-adv-x="520" d="M262 1190q-57 0 -95 34.5t-38 88.5q0 55 37.5 89t95.5 34q56 0 93.5 -34t37.5 -89q0 -54 -37.5 -88.5t-93.5 -34.5zM156 1001h206v-1079q0 -354 -296 -354q-89 0 -158 26l41 156q50 -16 90 -16q66 0 91.5 45.5t25.5 140.5v1081z" />
<glyph unicode="k" horiz-adv-x="1044" d="M152 1452h204v-940h6l394 489h227l-340 -405l381 -596h-227l-273 455l-168 -197v-258h-204v1452z" />
<glyph unicode="l" horiz-adv-x="540" d="M152 1452h206v-1231q0 -38 14.5 -57t35.5 -19q14 0 36 5l27 -156q-47 -19 -113 -19q-109 0 -157.5 65.5t-48.5 192.5v1219z" />
<glyph unicode="m" horiz-adv-x="1705" d="M152 1001h170l16 -139h8q153 164 307 164q208 0 277 -184q84 89 161 136.5t164 47.5q155 0 231.5 -101t76.5 -294v-631h-207v604q0 129 -40 186.5t-126 57.5q-102 0 -227 -137v-711h-207v604q0 129 -41.5 186.5t-128.5 57.5q-103 0 -228 -137v-711h-206v1001z" />
<glyph unicode="n" horiz-adv-x="1126" d="M152 1001h170l16 -139h8q77 77 156.5 120.5t175.5 43.5q305 0 305 -395v-631h-207v604q0 130 -40 187t-130 57q-67 0 -121 -32t-127 -105v-711h-206v1001z" />
<glyph unicode="o" horiz-adv-x="1112" d="M86 500q0 122 38.5 222.5t104 166t149.5 101.5t177 36q94 0 178.5 -36t150 -101.5t104 -166t38.5 -222.5q0 -121 -38.5 -221.5t-104 -166t-150 -101.5t-178.5 -36q-93 0 -177.5 36t-149.5 101.5t-103.5 166t-38.5 221.5zM299 500q0 -160 69.5 -257.5t186.5 -97.5 q119 0 188.5 97t69.5 258t-69.5 258.5t-188.5 97.5q-116 0 -186 -98t-70 -258z" />
<glyph unicode="p" horiz-adv-x="1136" d="M358 -82v-326h-206v1409h170l16 -110h8q157 135 309 135q187 0 290.5 -137.5t103.5 -372.5q0 -124 -35.5 -228t-95.5 -171.5t-137.5 -104.5t-162.5 -37q-128 0 -266 113zM358 240q109 -93 222 -93q112 0 184 97.5t72 269.5q0 340 -238 340q-108 0 -240 -123v-491z" />
<glyph unicode="q" horiz-adv-x="1128" d="M786 104q-136 -129 -286 -129q-190 0 -302 139.5t-112 385.5q0 119 36 219.5t95.5 166.5t137 103t161.5 37q82 0 147 -29t134 -92h4l20 96h164v-1409h-209v342zM776 762q-100 92 -219 92q-109 0 -182.5 -96.5t-73.5 -255.5q0 -170 64.5 -262.5t183.5 -92.5q122 0 227 123 v492z" />
<glyph unicode="r" horiz-adv-x="735" d="M147 1001h170l17 -180h8q51 97 126 151t157 54q66 0 110 -20l-37 -181q-56 17 -100 17q-68 0 -134 -52.5t-110 -164.5v-625h-207v1001z" />
<glyph unicode="s" horiz-adv-x="874" d="M156 248q72 -57 138.5 -86t143.5 -29q86 0 132 37.5t46 97.5q0 26 -12.5 48t-31.5 38.5t-48 32t-56 27t-62 24.5q-7 3 -11 4q-48 18 -83.5 34t-76.5 42t-67.5 54.5t-44 70.5t-17.5 90q0 128 96.5 210.5t258.5 82.5q173 0 323 -117l-96 -129q-117 88 -223 88 q-79 0 -120.5 -35.5t-41.5 -89.5q0 -23 11 -43t26.5 -33.5t44.5 -28.5t51 -23.5t60 -22.5q15 -5 22 -8q52 -19 85 -33t77.5 -41t70 -56t44 -74t18.5 -99q0 -131 -101.5 -218.5t-279.5 -87.5q-100 0 -200 38.5t-177 101.5z" />
<glyph unicode="t" horiz-adv-x="727" d="M195 836h-146v155l156 10l24 277h174v-277h261v-165h-261v-510q0 -92 35.5 -138.5t112.5 -46.5q41 0 106 25l37 -154q-109 -37 -196 -37q-303 0 -303 351v510z" />
<glyph unicode="u" horiz-adv-x="1120" d="M141 1001h207v-604q0 -130 40 -186.5t130 -56.5q69 0 123 34.5t119 116.5v696h207v-1001h-170l-17 152h-6q-73 -86 -150.5 -131.5t-174.5 -45.5q-308 0 -308 396v630z" />
<glyph unicode="v" horiz-adv-x="991" d="M27 1001h211l172 -540l88 -299h8q53 178 86 299l172 540h203l-346 -1001h-242z" />
<glyph unicode="w" horiz-adv-x="1505" d="M49 1001h209l133 -544q10 -43 19 -88.5t20 -108t16 -88.5h9q8 35 29.5 133.5t35.5 151.5l142 544h192l143 -544q11 -43 22.5 -90.5t24.5 -104.5t21 -90h8q16 68 57 285l132 544h194l-260 -1001h-248l-127 498q-14 51 -34 147t-31 141h-8q-37 -188 -64 -290l-125 -496 h-240z" />
<glyph unicode="x" horiz-adv-x="954" d="M350 522l-299 479h223l121 -202q77 -136 97 -168h8q62 126 84 168l104 202h217l-299 -501l320 -500h-224l-131 213q-101 171 -106 178h-8q-23 -43 -92 -178l-119 -213h-217z" />
<glyph unicode="y" horiz-adv-x="983" d="M113 -238q47 -14 73 -14q149 0 213 191l19 67l-395 995h210l187 -518q47 -143 90 -282h8q31 106 80 282l164 518h199l-369 -1062q-63 -176 -153 -267.5t-240 -91.5q-60 0 -125 21z" />
<glyph unicode="z" horiz-adv-x="903" d="M70 111l495 725h-440v165h700v-110l-495 -725h512v-166h-772v111z" />
<glyph unicode="{" horiz-adv-x="647" d="M244 1270q0 69 13.5 109.5t53.5 70t111.5 40.5t189.5 11v-94q-61 -13 -111.5 -34.5t-70.5 -36.5l-20 -15v-528q0 -37 -10.5 -69.5t-23.5 -54.5t-37 -42.5t-38 -30.5t-39 -21t-28 -12t-17 -6q11 -2 27.5 -8t47.5 -24t55.5 -41.5t43.5 -65t19 -90.5v-539q8 -6 23.5 -16 t68 -31t110.5 -31v-98q-119 1 -190 12t-111 40.5t-53.5 71t-13.5 111.5v517q0 40 -51.5 88.5t-96.5 70.5q-4 8 -4 15v43q0 4 4 8q19 10 38 22.5t47 34t45.5 47t17.5 49.5v527z" />
<glyph unicode="|" horiz-adv-x="339" d="M92 1552l154 -39v-1968h-154v2007z" />
<glyph unicode="}" horiz-adv-x="702" d="M90 1501q118 0 189.5 -11t112 -40.5t54 -70t13.5 -109.5v-527q0 -31 32.5 -66.5t60 -53.5t54.5 -33q4 -2 4 -8v-43q0 -11 -4 -15q-45 -22 -96 -70.5t-51 -88.5v-517q0 -70 -13.5 -111.5t-54 -71t-111.5 -40.5t-190 -12v98q58 10 109.5 29.5t73.5 33.5l22 15v539 q0 49 18.5 90.5t42.5 65t54.5 41.5t47 24t27.5 8q-17 6 -28 10t-45.5 24t-56 43t-41 65.5t-19.5 93.5v528q-8 6 -23 16.5t-68 33.5t-114 36v94z" />
<glyph unicode="~" horiz-adv-x="1130" d="M78 979q115 121 272 121q53 0 119 -20.5t118 -45t113 -45t105 -20.5q60 0 125.5 35.5t124.5 95.5v-160q-67 -62 -130.5 -87.5t-138.5 -25.5q-56 0 -121.5 20t-115.5 43.5t-110 43.5t-105 20q-66 0 -124 -28t-132 -101v154z" />
<glyph unicode="&#xa1;" horiz-adv-x="411" d="M279 1094l24 -9q13 -150 12 -184l-6 -20l-174 -21l-24 6q3 78 -7 187l7 20zM268 748q12 -81 26.5 -261t14.5 -223v-276l-203 -17v244q0 3 4 56.5t9 120.5t14 163t19 178z" />
<glyph unicode="&#xa2;" horiz-adv-x="927" d="M633 1122l86 -28l-84 -283q83 -34 120.5 -83.5t65.5 -147.5l-162 -23q-15 75 -65 119l-164 -543q75 -24 150.5 25.5t91.5 156.5l164 -18q-18 -107 -82.5 -180t-159 -100.5t-203.5 -8.5l-88 -295l-90 27l90 295q-104 39 -157.5 144t-53.5 237q0 192 94.5 309t276.5 117 q31 0 86 -8zM506 709q-69 3 -121.5 -28t-80 -81t-39.5 -113t-5.5 -123.5t29.5 -113t59 -80.5z" />
<glyph unicode="&#xa3;" horiz-adv-x="985" d="M209 608q-39 131 -39 197q0 149 100 227t246 78q140 0 230 -71t114 -208l-162 -24q-15 83 -64.5 130.5t-117.5 47.5q-74 0 -122 -49t-48 -119q3 -95 41 -209h229v-119h-206q20 -70 -8 -155t-107 -164q64 16 129 10q82 -4 135 -18q118 -23 154 -23q44 3 127 39l53 -141 q-60 -32 -102.5 -41.5t-92.5 -9.5q-40 0 -76 9t-112 38q-95 22 -145 22q-51 0 -112 -18t-110 -49l-59 143q78 46 125 116t47 159q0 52 -10 83h-152v119h115z" />
<glyph unicode="&#xa5;" horiz-adv-x="1099" d="M983 1092l-289 -521h248v-110h-309v-115h309v-106h-309v-234h-158v234h-315v106h315v115h-315v110h250l-291 521h178l252 -482l250 482h184z" />
<glyph unicode="&#xa8;" horiz-adv-x="1134" d="M375 1194q-49 0 -81 32.5t-32 80.5t32 80t81 32t80.5 -32t31.5 -80t-31.5 -80.5t-80.5 -32.5zM743 1194q-49 0 -80.5 32.5t-31.5 80.5t31.5 80t80.5 32t81 -32t32 -80t-32 -80.5t-81 -32.5z" />
<glyph unicode="&#xa9;" horiz-adv-x="1658" d="M829 1358q185 0 347 -94t256 -254q92 -164 92 -346q0 -188 -93.5 -349t-252.5 -254q-168 -94 -349 -94q-186 0 -347 93.5t-255 254.5q-92 160 -92 349q0 183 93.5 345.5t252.5 254.5q163 94 348 94zM829 1223q-152 0 -281 -74.5t-204.5 -203.5t-75.5 -281 q0 -153 75.5 -282.5t204.5 -204.5t281 -75t281 75t204 204.5t75 282.5q0 114 -44.5 217.5t-119.5 178.5t-178.5 119t-217.5 44zM1178 532q-80 -262 -344 -262q-168 0 -273.5 109t-105.5 285q0 168 108 278.5t271 110.5q131 0 221 -69t114 -183l-178 -29q-34 148 -166 148 q-74 0 -120 -63.5t-46 -186.5q0 -267 166 -267q60 0 103 43t63 132z" />
<glyph unicode="&#xab;" horiz-adv-x="1116" d="M588 856v-131l-326 -231l326 -234v-131l-455 301v129zM983 856v-131l-328 -231l328 -234v-131l-455 301v129z" />
<glyph unicode="&#xae;" horiz-adv-x="1189" d="M594 1448q96 0 181.5 -38.5t144.5 -102t93 -145.5t34 -167q0 -118 -61 -225.5t-165 -165.5q-106 -59 -227 -59q-118 0 -225 60.5t-166 166.5q-60 105 -60 223q0 120 62 227.5t168 166.5t221 59zM594 1360q-161 0 -263 -107t-102 -258q0 -106 55 -191.5t138 -130 t172 -44.5q106 0 192 53.5t131.5 136.5t45.5 176q0 109 -55 194t-138 128t-176 43zM565 1235q108 0 159.5 -39t51.5 -96q0 -49 -32.5 -88t-86.5 -54q9 -8 17 -15.5t14.5 -13.5t15 -17.5t14 -18.5t18 -26t20.5 -31t27.5 -41t33.5 -50h-112l-46 78q-49 90 -79 111 q-17 12 -95 12v-201h-90v490h170zM573 1022q61 0 85 18t24 52q0 67 -115 67h-82v-137h88z" />
<glyph unicode="&#xb4;" horiz-adv-x="1134" d="M571 1229h-155l184 293h209z" />
<glyph unicode="&#xb8;" horiz-adv-x="1134" d="M518 6h129l-49 -104q121 -41 121 -148q0 -60 -45.5 -103t-114 -64t-156.5 -27l-18 94q178 21 178 96q0 34 -30 56t-97 40z" />
<glyph unicode="&#xbb;" horiz-adv-x="1116" d="M133 856l455 -297v-129l-455 -301v131l330 234l-330 231v131zM528 856l455 -297v-129l-455 -301v131l330 234l-330 231v131z" />
<glyph unicode="&#xbf;" horiz-adv-x="829" d="M362 1096l168 -19l2 -22q-1 -22 -2.5 -61t-2.5 -69.5t-1 -54.5l-24 -8l-174 21l-4 22q-5 71 12 187zM754 88q-53 -52 -140 -89.5t-190 -37.5q-159 0 -258.5 84.5t-99.5 208.5q0 59 22 109t55.5 82.5t73 67.5t74 64.5t59.5 73t29 92.5l98 -16q14 -159 -137 -299 q-84 -84 -90 -166q0 -78 42 -124t132 -46q98 0 174 55l23 107h133v-166z" />
<glyph unicode="&#x2c6;" horiz-adv-x="1134" d="M475 1468h168l195 -294h-146l-129 180h-8l-129 -180h-145z" />
<glyph unicode="&#x2da;" horiz-adv-x="1134" d="M559 1114q-90 0 -146.5 54t-56.5 141t56.5 140.5t146.5 53.5t146.5 -53.5t56.5 -140.5t-56.5 -141t-146.5 -54zM559 1200q40 0 67 30t27 79t-26.5 78.5t-67.5 29.5t-67.5 -29.5t-26.5 -78.5t27 -79t67 -30z" />
<glyph unicode="&#x2dc;" horiz-adv-x="1134" d="M258 1184q11 108 58 170.5t122 62.5q35 0 71.5 -15.5t62 -34.5t53.5 -34.5t49 -15.5q56 0 74 100h112q-11 -107 -58 -170t-122 -63q-35 0 -71 15.5t-60.5 34.5t-53.5 34.5t-51 15.5q-29 0 -46.5 -24t-26.5 -76h-113z" />
<glyph unicode="&#x5b0;" d="M264 -270q0 -25 -23 -50.5t-53 -25.5q-27 0 -51 21.5t-24 54.5q0 24 23.5 48.5t51.5 24.5t52 -21.5t24 -51.5zM264 -502q0 -26 -22.5 -49.5t-53.5 -23.5q-26 0 -50.5 22t-24.5 51q0 28 23 53t52 25q27 0 51.5 -24t24.5 -54z" />
<glyph unicode="&#x5b1;" d="M264 -270q0 -25 -24 -50.5t-54 -25.5q-27 0 -50 21.5t-23 54.5q0 25 22.5 49t50.5 24q27 0 52.5 -22t25.5 -51zM485 -270q0 -26 -20.5 -51t-50.5 -25t-54 21.5t-24 54.5q0 26 22.5 49.5t55.5 23.5q24 0 47.5 -22t23.5 -51zM727 -270q0 -25 -23 -50.5t-51 -25.5 q-29 0 -53.5 21.5t-24.5 54.5q0 25 23.5 49t54.5 24q26 0 50 -22t24 -51zM375 -498q0 -26 -21.5 -49.5t-52.5 -23.5q-28 0 -52 21t-24 52q0 28 23 52t53 24q25 0 49.5 -23t24.5 -53zM727 -502q0 -26 -23 -49.5t-51 -23.5t-53 22t-25 51t23.5 53.5t54.5 24.5q26 0 50 -24 t24 -54z" />
<glyph unicode="&#x5b2;" d="M653 -270q0 -25 -24.5 -50.5t-53.5 -25.5q-25 0 -50 21.5t-25 54.5q0 25 23 49t52 24q28 0 53 -22t25 -51zM434 -225v-82h-321v82h321zM653 -502q0 -26 -24 -49.5t-54 -23.5q-24 0 -49.5 22t-25.5 51t22.5 53.5t52.5 24.5q27 0 52.5 -24t25.5 -54z" />
<glyph unicode="&#x5b3;" d="M698 -270q0 -25 -22 -50.5t-51 -25.5q-28 0 -53 21.5t-25 54.5q0 25 23.5 49t54.5 24q26 0 49.5 -22t23.5 -51zM473 -225v-82h-160q37 -129 37 -164l-2 -61h-112l-3 61q0 16 8.5 57t17.5 74l9 33h-155v82h360zM698 -502q0 -26 -22 -49.5t-51 -23.5q-27 0 -52.5 22 t-25.5 51t23.5 53.5t54.5 24.5q26 0 49.5 -24t23.5 -54z" />
<glyph unicode="&#x5b4;" d="M264 -270q0 -25 -23 -50.5t-53 -25.5q-27 0 -51 21.5t-24 54.5q0 24 23.5 48.5t51.5 24.5t52 -21.5t24 -51.5z" />
<glyph unicode="&#x5b5;" d="M264 -270q0 -25 -24 -50.5t-54 -25.5q-27 0 -50 21.5t-23 54.5q0 25 22.5 49t50.5 24q27 0 52.5 -22t25.5 -51zM485 -270q0 -26 -20.5 -51t-50.5 -25t-54 21.5t-24 54.5q0 26 22.5 49.5t55.5 23.5q24 0 47.5 -22t23.5 -51z" />
<glyph unicode="&#x5b6;" d="M264 -270q0 -25 -24 -50.5t-54 -25.5q-27 0 -50 21.5t-23 54.5q0 25 22.5 49t50.5 24q27 0 52.5 -22t25.5 -51zM485 -270q0 -26 -20.5 -51t-50.5 -25t-54 21.5t-24 54.5q0 26 22.5 49.5t55.5 23.5q24 0 47.5 -22t23.5 -51zM375 -498q0 -26 -21.5 -49.5t-52.5 -23.5 q-28 0 -52 21t-24 52q0 28 23 52t53 24q25 0 49.5 -23t24.5 -53z" />
<glyph unicode="&#x5b7;" d="M467 -225v-82h-358v82h358z" />
<glyph unicode="&#x5b8;" d="M477 -225v-82h-164q37 -129 37 -164l-2 -61h-112l-3 61q0 16 8.5 57t17.5 74l9 33h-159v82h368z" />
<glyph unicode="&#x5b9;" d="M264 1300q0 -28 -23.5 -52.5t-54.5 -24.5q-26 0 -49.5 23t-23.5 54q0 26 22.5 50t50.5 24q29 0 53.5 -21.5t24.5 -52.5z" />
<glyph unicode="&#x5ba;" d="M264 459q0 -28 -23.5 -53t-54.5 -25q-26 0 -49.5 24t-23.5 54q0 26 22.5 51t50.5 25q29 0 53.5 -23t24.5 -53z" />
<glyph unicode="&#x5bb;" d="M408 -270q0 -25 -23.5 -50.5t-52.5 -25.5q-27 0 -50.5 21.5t-23.5 54.5q0 25 22.5 49t51.5 24q26 0 51 -22t25 -51zM545 -444q0 -24 -24 -48t-54 -24q-26 0 -51 22.5t-25 49.5q0 29 23 53t53 24q28 0 53 -23t25 -54zM678 -614q0 -24 -24 -49t-54 -25q-26 0 -50 22.5 t-24 51.5q0 26 23 49.5t51 23.5q29 0 53.5 -21t24.5 -52z" />
<glyph unicode="&#x5bc;" d="M264 555q0 -28 -23.5 -53t-54.5 -25q-26 0 -49.5 23.5t-23.5 54.5q0 26 22.5 50t50.5 24t53 -22.5t25 -51.5z" />
<glyph unicode="&#x5be;" horiz-adv-x="483" d="M53 1104l131 -21h238v-155h-287l-115 22z" />
<glyph unicode="&#x5bf;" d="M446 1348v-86h-428v86h428z" />
<glyph unicode="&#x5c1;" d="M205 1300q0 -27 -24 -52t-54 -25q-28 0 -52 23t-24 54q0 26 23 50t53 24q29 0 53.5 -21.5t24.5 -52.5z" />
<glyph unicode="&#x5c2;" d="M408 1300q0 -27 -23 -52t-53 -25q-28 0 -52 23t-24 54q0 26 22.5 50t53.5 24q29 0 52.5 -21.5t23.5 -52.5z" />
<glyph unicode="&#x5c7;" d="M377 -225v-82h-111q35 -129 35 -164l-2 -61h-113l-2 61q0 16 9 57t17 74l9 33h-106v82h264z" />
<glyph unicode="&#x5d0;" horiz-adv-x="1179" d="M236 1126q60 -57 204 -208t283 -316q0 24 14.5 104t53 203.5t88.5 204.5l204 -70q-102 -193 -270 -546q241 -307 309 -408l-155 -119q-141 216 -271.5 381t-300.5 340q-45 -89 -71.5 -230.5t-16.5 -299.5l127 -15l-6 -147h-309q-18 141 3.5 298.5t41.5 207.5 q28 66 76.5 161.5t62.5 118.5q-128 137 -192 201z" />
<glyph unicode="&#x5d1;" horiz-adv-x="1009" d="M825 731v-334q0 -91 8.5 -142.5t32.5 -92.5l127 -12l-12 -150h-911v158h610l-29 63q-28 70 -28 101v423q0 187 -142 187h-297l-114 24l34 156l132 -22h243q85 0 146.5 -16.5t100 -45t61 -75t30.5 -99t8 -123.5z" />
<glyph unicode="&#x5d2;" horiz-adv-x="790" d="M166 1112l250 -29q79 -14 128 -58t60 -144l23 -271q6 -65 20 -180q10 -50 58.5 -216t64.5 -214h-209l-76 350h-4l-45 -78q-9 -14 -23 -38.5t-23 -39.5t-15 -22q-29 -39 -121 -135l-90 -92l-125 139l401 408l-34 430l-277 34z" />
<glyph unicode="&#x5d3;" horiz-adv-x="1019" d="M82 1112l133 -22h737l17 -148l-183 -16q-30 -30 -30 -103v-823h-203v694q0 35 32 130t42 110h-463l-115 22z" />
<glyph unicode="&#x5d4;" horiz-adv-x="1122" d="M279 1090h397q181 0 253 -90t72 -269v-731h-202v750q0 97 -39.5 140.5t-104.5 43.5h-426l-114 22l32 156zM330 0h-197v432q0 20 35 127l37 103l125 -15v-647z" />
<glyph unicode="&#x5d5;" horiz-adv-x="569" d="M100 1112l252 -43q86 -15 86 -137v-932h-200v920l-170 36z" />
<glyph unicode="&#x5d6;" horiz-adv-x="751" d="M100 1112l133 -22h441l12 -148l-219 -18q-42 -123 -42 -232.5t34 -300.5l65 -391h-205l-88 586q-7 46 22.5 155.5t59.5 192.5h-133l-114 22z" />
<glyph unicode="&#x5d7;" horiz-adv-x="1155" d="M121 1112l131 -22h428q108 0 178.5 -23.5t108 -73t51.5 -110.5t14 -152v-731h-205v745q0 98 -38 143.5t-99 45.5h-297q-53 -175 -53 -295v-639h-193v641q0 42 32 136.5t59 156.5h-37l-115 22z" />
<glyph unicode="&#x5d8;" horiz-adv-x="1218" d="M102 1112l215 -33q41 -8 41 -59v-442q1 -33 15.5 -102.5t30.5 -131t33 -123t18 -65.5h196q120 0 192 132.5t72 332.5v170q0 82 -24 118.5t-76 36.5h-43l-129 -299l-115 35l119 420h166q305 0 305 -348v-117q0 -94 -14 -180t-48.5 -171t-87 -147t-136.5 -100.5t-189 -38.5 h-338q-145 461 -145 543v387l-90 24z" />
<glyph unicode="&#x5d9;" horiz-adv-x="614" d="M205 449q100 285 100 450v19l-248 40l31 154l297 -37q60 -10 97.5 -51t37.5 -113q0 -85 -55 -236.5t-113 -264.5z" />
<glyph unicode="&#x5da;" horiz-adv-x="915" d="M86 1112l131 -22h236q86 0 147.5 -15t100 -41.5t61 -70.5t31 -95t8.5 -123v-1040l20 -129l-200 -35l-25 101v1114q0 98 -37 138t-106 40h-287l-115 22z" />
<glyph unicode="&#x5db;" horiz-adv-x="970" d="M86 956l31 156l131 -22h248q85 0 149 -19t105.5 -52t67 -83t36 -106.5t10.5 -127.5v-208q0 -78 -10.5 -145t-38.5 -133t-72.5 -112.5t-117.5 -75t-168 -28.5h-371v158h354q76 0 127 44.5t71.5 111t20.5 151.5v264q0 95 -45 150t-104 55h-311z" />
<glyph unicode="&#x5dc;" horiz-adv-x="1007" d="M254 1473l22 -123v-260h635l29 -123l-434 -967h-221l372 811q12 22 32 54t34 53l14 22q-96 -6 -168 -6h-444q-17 0 -28 11t-11 28v338l-18 129z" />
<glyph unicode="&#x5dd;" horiz-adv-x="1173" d="M102 1112l136 -22h481q107 0 177 -22t107.5 -69t51.5 -107.5t14 -150.5v-741h-897v743q0 12 8 42.5t24.5 83.5t20.5 65h-37l-118 24zM868 750q0 95 -39.5 139.5t-103.5 44.5h-350v-776h493v592z" />
<glyph unicode="&#x5de;" horiz-adv-x="1177" d="M123 1112l133 -22h410q188 0 288.5 -110.5t100.5 -293.5v-530q0 -22 -7.5 -61t-15.5 -67l-8 -28h-438v158h268v540q0 110 -54 173t-151 63h-160q-76 -174 -94 -303l-69 -631h-193l74 647q3 45 43 131t82 156h-127l-115 22z" />
<glyph unicode="&#x5df;" horiz-adv-x="569" d="M100 1112l267 -45q32 -64 52.5 -147t20.5 -156v-1059l25 -129l-201 -35l-24 101v1280l-174 34z" />
<glyph unicode="&#x5e0;" horiz-adv-x="727" d="M205 1112l315 -45q34 -62 55 -145t21 -158v-608q0 -22 -7 -61t-13 -67l-7 -28h-510v158h334v610q0 41 -4.5 79.5t-8.5 56.5l-5 18l-205 34z" />
<glyph unicode="&#x5e1;" horiz-adv-x="1136" d="M100 1112l133 -22h451q106 0 176 -23.5t107.5 -72.5t52 -111t14.5 -152v-219q0 -102 -25.5 -193t-76 -167.5t-138.5 -122t-202 -45.5q-92 0 -168 29.5t-127 79t-86 118t-50.5 144t-15.5 157.5v88q0 32 26.5 115.5t52.5 150.5l26 68h-68l-114 22zM831 745 q0 98 -38.5 143.5t-102.5 45.5h-274q-43 -118 -58.5 -186.5t-15.5 -176.5v-116q2 -134 72 -228t176 -94q105 0 173 92.5t68 239.5v280z" />
<glyph unicode="&#x5e2;" horiz-adv-x="1097" d="M104 1112l189 -31q16 -4 33 -18t22 -39l121 -565q31 -100 96 -234q163 85 187 303l39 562h204q-25 -363 -45 -529q-24 -213 -122 -337t-273 -185q-75 -26 -188.5 -58t-190.5 -51l-76 -18l-34 151q227 68 370 113q-39 54 -85.5 130.5t-53.5 105.5l-125 526l-104 18z" />
<glyph unicode="&#x5e3;" horiz-adv-x="1046" d="M147 1112l119 -22h580q15 -23 45.5 -131t30.5 -191v-1063l22 -129l-201 -35l-24 101v1292h-361q-31 -71 -46 -178t-15 -191l160 -26l-25 -138l-219 23l-119 -10q-3 108 21 266q2 16 19 65t41 114t28 75l-90 22z" />
<glyph unicode="&#x5e4;" horiz-adv-x="1112" d="M162 1112l127 -22h620q14 -23 44 -131t30 -191v-274q0 -78 -10.5 -145t-39 -133t-73.5 -112.5t-118 -75t-169 -28.5h-428v158h416q56 0 100 25.5t69.5 69.5t38.5 97.5t13 114.5v469h-397q-70 -152 -70 -309l168 -35l-26 -133l-213 24l-115 -14q-10 52 10 225 q2 15 18 60.5t41 110.5t27 71l-96 22z" />
<glyph unicode="&#x5e5;" horiz-adv-x="1030" d="M551 430q82 301 98 340q13 46 56 158.5t77 183.5l207 -78q-53 -94 -184 -359.5t-191 -398.5l226 -524l67 -114l-159 -103l-62 86l-522 1303l-123 30l35 158l194 -41q45 -10 60 -55z" />
<glyph unicode="&#x5e6;" horiz-adv-x="1085" d="M291 1071q49 -9 59 -55q64 -266 258 -494q3 24 29.5 124t36.5 124q10 51 49 162t74 180l204 -78q-57 -102 -158 -305.5t-143 -304.5q50 -55 115.5 -119t117.5 -111t54 -49l-26 -145h-855v158h639q-89 65 -167.5 140t-154 169.5t-135.5 211.5t-95 245l-127 28l34 160z" />
<glyph unicode="&#x5e7;" horiz-adv-x="1173" d="M156 1112l133 -22h807l26 -123l-428 -967h-215l359 811q12 22 32.5 54t35.5 53l14 22q-94 -6 -166 -6h-514l-117 22zM162 432q0 16 18 73.5t36 106.5l17 50l125 -15v-942l23 -129l-197 -35l-22 101v790z" />
<glyph unicode="&#x5e8;" horiz-adv-x="974" d="M100 1112l131 -22h269q107 0 178 -23.5t108.5 -72.5t52.5 -111t15 -152v-731h-209v745q0 99 -38 144t-103 45h-324l-114 22z" />
<glyph unicode="&#x5e9;" horiz-adv-x="1458" d="M106 1112l216 -31q40 -6 40 -59v-457q0 -64 21 -186.5t53 -222.5h174q19 119 15 323v611h198v-506q0 -276 -53 -428h74q68 0 121 38t85.5 104t49 150t16.5 181v461h207v-463q-1 -93 -16.5 -179t-52 -169t-90.5 -144t-138 -98t-188 -37h-547q-34 101 -81.5 294t-47.5 253 v389l-90 20z" />
<glyph unicode="&#x5ea;" horiz-adv-x="1208" d="M150 1112l131 -22h456q107 0 177 -23.5t107.5 -73t51.5 -110.5t14 -152v-731h-200v745q0 98 -39.5 143.5t-104.5 45.5h-288q-47 -147 -50 -257t31 -306l53 -240l-26 -131h-389l-11 147l207 15l-57 422q-4 48 29 164.5t63 185.5h-76l-114 22z" />
<glyph unicode="&#x5f0;" horiz-adv-x="1140" d="M352 1069q86 -15 86 -137v-932h-200v920l-170 36l32 156zM922 1069q86 -15 86 -137v-932h-201v920l-170 36l33 156z" />
<glyph unicode="&#x5f1;" horiz-adv-x="1183" d="M205 449q100 285 100 450v19l-248 40l31 154l297 -37q60 -10 97.5 -51t37.5 -113q0 -85 -55 -236.5t-113 -264.5zM967 1069q86 -15 86 -137v-932h-201v920l-170 36l33 156z" />
<glyph unicode="&#x5f2;" horiz-adv-x="1226" d="M205 449q100 285 100 450v19l-248 40l31 154l297 -37q60 -10 97.5 -51t37.5 -113q0 -85 -55 -236.5t-113 -264.5zM819 449q101 287 101 450v19l-248 40l30 154l297 -37q60 -10 98 -51t38 -113q0 -85 -55 -236.5t-113 -264.5z" />
<glyph unicode="&#x5f3;" horiz-adv-x="358" d="M160 1243l147 -49v-35q-27 -109 -89 -238.5t-126 -191.5l-59 33l98 481h29z" />
<glyph unicode="&#x5f4;" horiz-adv-x="706" d="M188 1243l150 -49v-35q-27 -108 -90 -237.5t-127 -192.5l-60 33l99 481h28zM494 1243l151 -49v-35q-29 -111 -91.5 -239.5t-125.5 -190.5l-59 33l98 481h27z" />
<glyph unicode="&#x2012;" horiz-adv-x="1028" d="M82 586h866v-140h-866v140z" />
<glyph unicode="&#x2013;" horiz-adv-x="999" d="M82 659l131 -20h705v-156h-754l-115 21z" />
<glyph unicode="&#x2014;" horiz-adv-x="1656" d="M88 674l203 -35h1284v-156h-1301l-229 37z" />
<glyph unicode="&#x2018;" horiz-adv-x="274" d="M203 1122h-82l-58 312l-4 151h156z" />
<glyph unicode="&#x2019;" horiz-adv-x="274" d="M72 1122l-13 463h156l-4 -151l-57 -312h-82z" />
<glyph unicode="&#x201a;" horiz-adv-x="372" d="M150 211l145 -49v-35q-22 -105 -86.5 -235.5t-128.5 -194.5l-60 33l101 473z" />
<glyph unicode="&#x201c;" d="M203 1122h-82l-58 312l-4 151h156z" />
<glyph unicode="&#x201d;" horiz-adv-x="274" d="M72 1122l-13 463h156l-4 -151l-57 -312h-82z" />
<glyph unicode="&#x201e;" horiz-adv-x="372" d="M150 211l145 -49v-35q-22 -105 -86.5 -235.5t-128.5 -194.5l-60 33l101 473z" />
<glyph unicode="&#x2020;" horiz-adv-x="1011" d="M588 1239v-348h344v-143h-344v-1049h-166v1049h-342v143h342v348h166z" />
<glyph unicode="&#x2021;" horiz-adv-x="1015" d="M590 1247v-317h344v-144h-344v-630h344v-142h-344v-315h-166v315h-344v142h344v630h-344v144h344v317h166z" />
<glyph unicode="&#x2022;" horiz-adv-x="856" d="M328 723l237 -25l2 -28q8 -72 -12 -256l-37 -4l-229 26l-4 29q8 180 8 254z" />
<glyph unicode="&#x2026;" horiz-adv-x="1173" d="M125 219l174 -20l2 -21q7 -62 -8 -186l-27 -6l-170 18l-2 23q0 15 3 84.5t3 99.5zM514 219l174 -20l4 -21q4 -53 -12 -186l-27 -6l-168 18l-4 23q8 132 8 184zM901 219l174 -20l2 -21q6 -53 -10 -186l-25 -6l-168 18l-4 23q9 142 7 184z" />
<glyph unicode="&#x2030;" horiz-adv-x="1929" d="M834 1241l122 -78l-426 -1163l-137 45zM322 1237q112 0 176.5 -91.5t64.5 -248.5q0 -71 -13 -129.5t-40.5 -106t-76 -74t-114.5 -26.5q-117 0 -179 90.5t-62 245.5q0 95 24.5 169.5t81 122.5t138.5 48zM322 1126q-101 0 -101 -229t101 -229q55 0 76.5 57.5t21.5 171.5 t-21.5 171.5t-76.5 57.5zM1038 662q112 0 177 -91.5t65 -248.5q0 -71 -12.5 -129t-40 -106t-76 -74.5t-115.5 -26.5q-117 0 -179 90.5t-62 245.5q0 95 24.5 169.5t80.5 122.5t138 48zM1610 662q112 0 176.5 -91.5t64.5 -248.5q0 -71 -12.5 -129t-39.5 -106t-75.5 -74.5 t-115.5 -26.5q-117 0 -179.5 90.5t-62.5 245.5q0 95 24.5 169.5t81 122.5t138.5 48zM1038 553q-100 0 -100 -231q0 -230 100 -230q55 0 77 58t22 172t-22 172.5t-77 58.5zM1610 553q-101 0 -101 -231q0 -230 101 -230q55 0 76.5 58t21.5 172q0 115 -21.5 173t-76.5 58z" />
<glyph unicode="&#x2039;" horiz-adv-x="647" d="M551 856v-131l-328 -231l328 -234v-131l-455 301v129z" />
<glyph unicode="&#x203a;" horiz-adv-x="647" d="M96 856l455 -297v-129l-455 -301v131l328 234l-328 231v131z" />
<glyph unicode="&#x2044;" horiz-adv-x="423" d="M332 1133l114 -78l-342 -965l-127 45z" />
<glyph unicode="&#x20ac;" horiz-adv-x="1050" d="M207 696q17 90 54.5 161.5t86.5 117.5t111 76t125 42.5t131 12.5q138 0 239 -62l-34 -149q-100 74 -203 74q-73 0 -135.5 -26t-102.5 -67.5t-63.5 -88t-28.5 -91.5h459l-21 -94h-450q-4 -10 -3.5 -51.5t7.5 -58.5h428l-19 -93h-403q13 -76 46.5 -132t79 -86.5t94 -45 t100.5 -14.5q137 0 227 72v-160q-85 -49 -215 -49q-121 0 -214.5 34t-152 93.5t-92 131t-45.5 156.5h-119l23 93h80q-6 83 2 110h-101l23 94h86z" />
<glyph unicode="&#x2122;" horiz-adv-x="1392" d="M586 1341v-106h-195v-496h-119v496h-194v106h508zM1249 1341v-602h-112v412l-138 -412h-100l-135 418v-418h-113v602h164l139 -430l140 430h155z" />
<glyph unicode="&#xe000;" horiz-adv-x="1003" d="M0 1004h1004v-1004h-1004v1004z" />
<glyph unicode="&#xfb00;" horiz-adv-x="1236" d="M788 1128q0 164 80 256.5t236 92.5q87 0 178 -35l-41 -156q-61 25 -111 25q-135 0 -135 -181v-129h203v-165h-203v-836h-207v836h-393v-836h-207v836h-135v155l135 10v107q0 164 84.5 256t247.5 92q100 0 191 -37l-41 -155q-59 26 -129 26q-69 0 -107.5 -47.5 t-38.5 -136.5v-105h393v127z" />
<glyph unicode="&#xfb20;" horiz-adv-x="1093" d="M98 1112l185 -29q52 -13 61 -57l102 -569q60 -226 97 -299q55 3 97.5 49t65.5 111.5t33 144.5l54 627h200l-55 -601q-8 -77 -23 -141t-48 -131t-81 -112.5t-125.5 -75t-177.5 -29.5h-415v156h340q-41 61 -82 134.5t-47 98.5l-109 551l-102 18z" />
<glyph unicode="&#xfb21;" horiz-adv-x="1976" d="M186 1118q194 -78 507 -245t691 -418q36 133 112 338t136 317l201 -78q-52 -87 -342 -649l424 -287l-107 -151q-270 191 -708 469t-641 377q-94 -171 -127.5 -320.5t-22.5 -308.5l162 -17l-8 -145h-340q-14 102 -13.5 184.5t12.5 154t46.5 153.5t75 157.5t110.5 192.5 q-45 20 -126 57t-111 51z" />
<glyph unicode="&#xfb22;" horiz-adv-x="1744" d="M80 1110l133 -20h1468l15 -148l-211 -16q-27 -27 -27 -103v-823h-203v694q0 36 29 118t47 122h-1167l-115 22z" />
<glyph unicode="&#xfb23;" horiz-adv-x="2023" d="M141 1110l133 -20h1282q107 0 177.5 -23.5t107.5 -72.5t51.5 -110.5t14.5 -152.5v-731h-207v750q0 184 -139 184h-1336l-116 22zM129 432q0 16 17.5 73.5t35.5 106.5l17 50l125 -15v-647h-195v432z" />
<glyph unicode="&#xfb24;" horiz-adv-x="1941" d="M115 1110l133 -20h1222q106 0 180 -28t115 -82t58.5 -121t17.5 -157v-208q0 -78 -10.5 -145t-39 -133t-73 -112.5t-117.5 -75t-169 -28.5h-1348v158h1331q57 0 100.5 25t68.5 69t37.5 97.5t12.5 115.5v264q0 97 -44.5 151t-108.5 54h-1282l-115 22z" />
<glyph unicode="&#xfb25;" horiz-adv-x="1839" d="M250 1473l24 -123v-260h1471l29 -132l-813 -958h-238l686 811q18 23 57 55t69 53l30 21q-106 -6 -176 -6h-1268q-16 0 -27.5 11t-11.5 28v338l-16 129z" />
<glyph unicode="&#xfb26;" horiz-adv-x="2035" d="M96 1112l133 -22h1358q107 0 176.5 -22t107 -69t52 -107.5t14.5 -150.5v-741h-1749v743q0 12 8.5 41t28 86.5t21.5 63.5h-64l-119 24zM1735 750q0 96 -38.5 140t-101.5 44h-1206v-776h1346v592z" />
<glyph unicode="&#xfb27;" horiz-adv-x="1761" d="M100 1110l129 -20h1067q106 0 176.5 -23.5t108 -72.5t52 -111t14.5 -152v-731h-207v745q0 98 -38.5 143.5t-101.5 45.5h-1122l-115 22z" />
<glyph unicode="&#xfb28;" horiz-adv-x="2164" d="M150 1110l131 -20h1415q108 0 179 -23.5t108.5 -72.5t52 -111t14.5 -152v-731h-205v745q0 98 -38.5 143.5t-102.5 45.5h-1215q-49 -149 -52.5 -257t34.5 -306l51 -240l-28 -131h-420l-11 147l242 15l-59 422q-3 47 30 163t62 187h-109l-114 22z" />
<glyph unicode="&#xfb29;" horiz-adv-x="968" d="M559 946v-311h315v-148h-780l39 148h281v311h145z" />
<glyph unicode="&#xfb2a;" horiz-adv-x="1458" d="M1223 1378q29 0 53 -21t24 -52q0 -27 -23.5 -52.5t-53.5 -25.5q-27 0 -51.5 23.5t-24.5 54.5q0 26 23 49.5t53 23.5zM106 1112l216 -31q40 -6 40 -59v-457q0 -64 21 -186.5t53 -222.5h174q19 119 15 323v611h198v-506q0 -276 -53 -428h74q68 0 121 38t85.5 104t49 150 t16.5 181v461h207v-463q-1 -93 -16.5 -179t-52 -169t-90.5 -144t-138 -98t-188 -37h-547q-34 101 -81.5 294t-47.5 253v389l-90 20z" />
<glyph unicode="&#xfb2b;" horiz-adv-x="1458" d="M227 1378q29 0 53.5 -21t24.5 -52q0 -27 -24 -52.5t-54 -25.5q-27 0 -51 23.5t-24 54.5q0 26 22.5 49.5t52.5 23.5zM106 1112l216 -31q40 -6 40 -59v-457q0 -64 21 -186.5t53 -222.5h174q19 119 15 323v611h198v-506q0 -276 -53 -428h74q68 0 121 38t85.5 104t49 150 t16.5 181v461h207v-463q-1 -93 -16.5 -179t-52 -169t-90.5 -144t-138 -98t-188 -37h-547q-34 101 -81.5 294t-47.5 253v389l-90 20z" />
<glyph unicode="&#xfb2c;" horiz-adv-x="1458" d="M1296 1305q0 -27 -23.5 -52.5t-53.5 -25.5q-27 0 -51.5 23.5t-24.5 54.5q0 26 23 49.5t53 23.5q29 0 53 -21t24 -52zM106 1112l216 -31q40 -6 40 -59v-457q0 -64 21 -186.5t53 -222.5h174q19 119 15 323v611h198v-506q0 -276 -53 -428h74q68 0 121 38t85.5 104t49 150 t16.5 181v461h207v-463q-1 -93 -16.5 -179t-52 -169t-90.5 -144t-138 -98t-188 -37h-547q-34 101 -81.5 294t-47.5 253v389l-90 20zM1038 561q0 -28 -23 -53t-54 -25q-26 0 -50 23.5t-24 54.5q0 26 23 50t51 24t52.5 -22.5t24.5 -51.5z" />
<glyph unicode="&#xfb2d;" horiz-adv-x="1458" d="M1298 1305q0 -27 -23.5 -52.5t-53.5 -25.5q-27 0 -51.5 23.5t-24.5 54.5q0 26 23 49.5t53 23.5q29 0 53 -21t24 -52zM106 1112l216 -31q40 -6 40 -59v-457q0 -64 21 -186.5t53 -222.5h174q19 119 15 323v611h198v-506q0 -276 -53 -428h74q68 0 121 38t85.5 104t49 150 t16.5 181v461h207v-463q-1 -93 -16.5 -179t-52 -169t-90.5 -144t-138 -98t-188 -37h-547q-34 101 -81.5 294t-47.5 253v389l-90 20zM1036 561q0 -28 -23.5 -53t-54.5 -25q-26 0 -49.5 23.5t-23.5 54.5q0 26 22.5 50t50.5 24t53 -22.5t25 -51.5z" />
<glyph unicode="&#xfb2e;" horiz-adv-x="1179" d="M236 1126q60 -57 204 -208t283 -316q0 24 14.5 104t53 203.5t88.5 204.5l204 -70q-102 -193 -270 -546q241 -307 309 -408l-155 -119q-141 216 -271.5 381t-300.5 340q-45 -89 -71.5 -230.5t-16.5 -299.5l127 -15l-6 -147h-309q-18 141 3.5 298.5t41.5 207.5 q28 66 76.5 161.5t62.5 118.5q-128 137 -192 201zM791 -225v-82h-359v82h359z" />
<glyph unicode="&#xfb2f;" horiz-adv-x="1179" d="M236 1126q60 -57 204 -208t283 -316q0 24 14.5 104t53 203.5t88.5 204.5l204 -70q-102 -193 -270 -546q241 -307 309 -408l-155 -119q-141 216 -271.5 381t-300.5 340q-45 -89 -71.5 -230.5t-16.5 -299.5l127 -15l-6 -147h-309q-18 141 3.5 298.5t41.5 207.5 q28 66 76.5 161.5t62.5 118.5q-128 137 -192 201zM795 -225v-82h-164q37 -129 37 -164l-2 -61h-113l-2 61q0 16 8.5 57t17.5 74l9 33h-160v82h369z" />
<glyph unicode="&#xfb30;" horiz-adv-x="1179" d="M236 1126q60 -57 204 -208t283 -316q0 24 14.5 104t53 203.5t88.5 204.5l204 -70q-102 -193 -270 -546q241 -307 309 -408l-155 -119q-141 216 -271.5 381t-300.5 340q-45 -89 -71.5 -230.5t-16.5 -299.5l127 -15l-6 -147h-309q-18 141 3.5 298.5t41.5 207.5 q28 66 76.5 161.5t62.5 118.5q-128 137 -192 201zM559 332q0 29 -25 51.5t-53 22.5t-50.5 -24t-22.5 -50q0 -31 23.5 -54.5t49.5 -23.5q31 0 54.5 25t23.5 53z" />
<glyph unicode="&#xfb31;" horiz-adv-x="1009" d="M104 1112l132 -22h243q85 0 146.5 -16.5t100 -44.5t61 -74.5t30.5 -99t8 -124.5v-334q0 -91 8.5 -142.5t32.5 -92.5l127 -12l-12 -150h-911v158h610q-57 117 -57 164v423q0 187 -142 187h-297l-114 24zM342 629q28 0 53 -22.5t25 -51.5q0 -28 -23.5 -53t-54.5 -25 q-26 0 -50 23.5t-24 54.5q0 26 23 50t51 24z" />
<glyph unicode="&#xfb32;" horiz-adv-x="778" d="M166 1112l250 -29q79 -14 128 -58t60 -144l23 -271q6 -65 20 -180q6 -34 34.5 -133t57.5 -194t31 -103h-209l-76 350h-4q-81 -145 -106 -178q-19 -26 -72 -83t-96 -101l-43 -43l-125 139l401 408l-34 430l-277 34zM193 629q28 0 52.5 -22.5t24.5 -51.5q0 -28 -23 -53 t-54 -25q-26 0 -50 23.5t-24 54.5q0 26 23 50t51 24z" />
<glyph unicode="&#xfb33;" horiz-adv-x="1019" d="M82 1112l133 -22h737l17 -148l-183 -16q-30 -30 -30 -103v-823h-203v694q0 36 29 120t45 120h-463l-115 22zM291 629q28 0 53 -22.5t25 -51.5q0 -28 -23.5 -53t-54.5 -25q-26 0 -50 23.5t-24 54.5q0 26 23 50t51 24z" />
<glyph unicode="&#xfb34;" horiz-adv-x="1122" d="M147 1112l132 -22h397q93 0 157.5 -24t100.5 -72t51.5 -111.5t15.5 -151.5v-731h-202v750q0 96 -39.5 140t-104.5 44h-426l-114 22zM133 432q0 16 18 73.5t36 106.5l18 50l125 -15v-647h-197v432zM553 629q28 0 53 -22.5t25 -51.5q0 -28 -23.5 -53t-54.5 -25 q-26 0 -50 23.5t-24 54.5q0 26 23 50t51 24z" />
<glyph unicode="&#xfb35;" horiz-adv-x="571" d="M100 1112l252 -43q86 -15 86 -137v-932h-200v920l-168 36zM63 629q28 0 53 -22.5t25 -51.5q0 -28 -23.5 -53t-54.5 -25q-26 0 -49.5 23.5t-23.5 54.5q0 26 22.5 50t50.5 24z" />
<glyph unicode="&#xfb36;" horiz-adv-x="753" d="M100 1112l136 -22h440l12 -148l-219 -18q-29 -86 -37 -165.5t-1 -156.5t30 -211l65 -391h-204l-91 586q-4 47 25.5 160t56.5 188h-131l-116 22zM63 629q28 0 53 -22.5t25 -51.5q0 -28 -23.5 -53t-54.5 -25q-26 0 -49.5 23.5t-23.5 54.5q0 26 22.5 50t50.5 24z" />
<glyph unicode="&#xfb38;" horiz-adv-x="1218" d="M102 1112l215 -33q41 -8 41 -59v-442q1 -33 15.5 -102.5t30.5 -131t33 -123t18 -65.5h196q120 0 192 132.5t72 332.5v170q0 82 -24 118.5t-76 36.5h-43l-129 -299l-115 35l119 420h166q305 0 305 -348v-117q0 -94 -14 -180t-48.5 -171t-87 -147t-136.5 -100.5t-189 -38.5 h-338q-145 461 -145 543v387l-90 24zM631 508q28 0 53 -22.5t25 -51.5q0 -28 -23.5 -53t-54.5 -25q-26 0 -50 23.5t-24 54.5q0 26 23 50t51 24z" />
<glyph unicode="&#xfb39;" horiz-adv-x="614" d="M88 1112l297 -37q60 -10 97.5 -51t37.5 -113q0 -85 -55 -236.5t-113 -264.5l-147 39q100 285 100 450v19l-248 40zM80 807q28 0 53 -22.5t25 -51.5q0 -28 -23.5 -53t-54.5 -25q-26 0 -50 23.5t-24 54.5q0 26 23 50t51 24z" />
<glyph unicode="&#xfb3a;" horiz-adv-x="915" d="M86 1112l131 -22h236q86 0 147.5 -15t100 -41.5t61 -70.5t31 -95t8.5 -123v-1040l20 -129l-200 -35l-25 101v1114q0 98 -37 138t-106 40h-287l-115 22zM313 647q28 0 53 -22.5t25 -51.5q0 -28 -23.5 -52.5t-54.5 -24.5q-26 0 -49.5 23t-23.5 54q0 26 22.5 50t50.5 24z " />
<glyph unicode="&#xfb3b;" horiz-adv-x="970" d="M117 1112l131 -22h248q85 0 149 -19t105.5 -52t67 -83t36 -106.5t10.5 -127.5v-208q0 -78 -10.5 -145t-38.5 -133t-72.5 -112.5t-117.5 -75t-168 -28.5h-371v158h354q76 0 127 44.5t71.5 111t20.5 151.5v264q0 95 -45 150t-104 55h-311l-113 22zM344 629q28 0 53 -22.5 t25 -51.5q0 -28 -23.5 -53t-54.5 -25q-26 0 -50 23.5t-24 54.5q0 26 23 50t51 24z" />
<glyph unicode="&#xfb3c;" horiz-adv-x="1007" d="M254 1473l22 -123v-260h635l29 -123l-434 -967h-221l372 811q12 22 32 54t34 53l14 22q-96 -6 -168 -6h-444q-17 0 -28 11t-11 28v338l-18 129zM297 649q28 0 53 -22.5t25 -51.5q0 -28 -23.5 -52.5t-54.5 -24.5q-26 0 -50 23t-24 54q0 26 23 50t51 24z" />
<glyph unicode="&#xfb3e;" horiz-adv-x="1177" d="M123 1112l133 -22h410q188 0 288.5 -110.5t100.5 -293.5v-530q0 -22 -7.5 -61t-15.5 -67l-8 -28h-438v158h268v540q0 110 -54 173t-151 63h-160q-76 -174 -94 -303l-69 -631h-193l74 647q3 45 43 131t82 156h-127l-115 22zM612 629q28 0 53 -22.5t25 -51.5 q0 -28 -23.5 -53t-54.5 -25q-26 0 -49.5 23.5t-23.5 54.5q0 26 22.5 50t50.5 24z" />
<glyph unicode="&#xfb40;" horiz-adv-x="724" d="M205 1112l315 -45q34 -62 55 -145t21 -158v-608q0 -22 -7 -61t-13 -67l-7 -28h-510v158h334v610q0 41 -4.5 79.5t-8.5 56.5l-5 18l-205 34zM186 629q28 0 53 -22.5t25 -51.5q0 -28 -23.5 -53t-54.5 -25q-26 0 -49.5 23.5t-23.5 54.5q0 26 22.5 50t50.5 24z" />
<glyph unicode="&#xfb41;" horiz-adv-x="1136" d="M100 1112l133 -22h451q106 0 176 -23.5t107.5 -72.5t52 -111t14.5 -152v-219q0 -102 -25.5 -193t-76 -167.5t-138.5 -122t-202 -45.5q-92 0 -168 29.5t-127 79t-86 118t-50.5 144t-15.5 157.5v88q0 32 26.5 115.5t52.5 150.5l26 68h-68l-114 22zM831 745 q0 98 -38.5 143.5t-102.5 45.5h-274q-43 -118 -58.5 -186.5t-15.5 -176.5v-116q2 -134 72 -228t176 -94q105 0 173 92.5t68 239.5v280zM584 629q28 0 53 -22.5t25 -51.5q0 -28 -23.5 -53t-54.5 -25q-26 0 -50 23.5t-24 54.5q0 26 23 50t51 24z" />
<glyph unicode="&#xfb43;" horiz-adv-x="1046" d="M147 1112l119 -22h580q15 -23 45.5 -131t30.5 -191v-1063l22 -129l-201 -35l-24 101v1292h-361q-30 -70 -45.5 -178.5t-15.5 -190.5l160 -26l-25 -138l-205 23l-133 -10q-3 111 21 270q2 16 19 64.5t40.5 110.5t28.5 75l-90 22zM514 803q28 0 53 -22.5t25 -51.5 q0 -28 -23.5 -53t-54.5 -25q-26 0 -50 23.5t-24 54.5q0 26 23 50t51 24z" />
<glyph unicode="&#xfb44;" horiz-adv-x="1112" d="M162 1112l127 -22h620q14 -23 44 -131t30 -191v-274q0 -78 -10.5 -145t-39 -133t-73.5 -112.5t-118 -75t-169 -28.5h-428v158h416q56 0 100 25.5t69.5 69.5t38.5 97.5t13 114.5v469h-397q-70 -152 -70 -309l177 -35l-23 -133l-209 24l-131 -12q-10 53 10 227 q2 15 18.5 60.5t40 106t27.5 71.5l-96 22zM553 819q28 0 53 -22.5t25 -51.5q0 -28 -23.5 -52.5t-54.5 -24.5q-26 0 -50 23t-24 54q0 26 23 50t51 24z" />
<glyph unicode="&#xfb46;" horiz-adv-x="1085" d="M291 1071q49 -9 59 -55q64 -266 258 -494q3 24 29.5 124t36.5 124q10 51 49 162t74 180l204 -78q-57 -102 -158 -305.5t-143 -304.5q50 -55 115.5 -119t117.5 -111t54 -49l-26 -145h-855v158h639q-89 65 -167.5 140t-154 169.5t-135.5 211.5t-95 245l-127 28l34 160z M258 432q28 0 53 -22.5t25 -51.5q0 -28 -23.5 -52.5t-54.5 -24.5q-26 0 -50 23t-24 54q0 26 23 50t51 24z" />
<glyph unicode="&#xfb47;" horiz-adv-x="1173" d="M156 1112l133 -22h807l26 -123l-428 -967h-215l359 811q12 22 32.5 54t35.5 53l14 22q-94 -6 -166 -6h-514l-117 22zM539 729q28 0 52.5 -22.5t24.5 -51.5q0 -28 -23 -52.5t-54 -24.5q-26 0 -50 23t-24 54q0 26 23 50t51 24zM162 432q0 16 18 73.5t36 106.5l17 50 l125 -15v-942l23 -129l-197 -35l-22 101v790z" />
<glyph unicode="&#xfb48;" horiz-adv-x="974" d="M100 1112l131 -22h269q107 0 178 -23.5t108.5 -72.5t52.5 -111t15 -152v-731h-209v745q0 99 -38 144t-103 45h-324l-114 22zM346 629q28 0 53 -22.5t25 -51.5q0 -28 -23.5 -53t-54.5 -25q-26 0 -50 23.5t-24 54.5q0 26 23 50t51 24z" />
<glyph unicode="&#xfb49;" horiz-adv-x="1458" d="M106 1112l216 -31q40 -6 40 -59v-457q0 -64 21 -186.5t53 -222.5h174q19 119 15 323v611h198v-506q0 -276 -53 -428h74q68 0 121 38t85.5 104t49 150t16.5 181v461h207v-463q-1 -93 -16.5 -179t-52 -169t-90.5 -144t-138 -98t-188 -37h-547q-34 101 -81.5 294t-47.5 253 v389l-90 20zM963 629q28 0 52.5 -22.5t24.5 -51.5q0 -28 -23 -53t-54 -25q-26 0 -50 23.5t-24 54.5q0 26 23 50t51 24z" />
<glyph unicode="&#xfb4a;" horiz-adv-x="1208" d="M150 1112l131 -22h456q107 0 177 -23.5t107.5 -73t51.5 -110.5t14 -152v-731h-200v745q0 98 -39.5 143.5t-104.5 45.5h-288q-47 -147 -50 -257t31 -306l53 -240l-26 -131h-389l-11 147l207 15l-57 422q-4 48 29 164.5t63 185.5h-76l-114 22zM643 629q28 0 53 -22.5 t25 -51.5q0 -28 -23.5 -53t-54.5 -25q-26 0 -50 23.5t-24 54.5q0 26 23 50t51 24z" />
<glyph unicode="&#xfb4b;" horiz-adv-x="569" d="M326 1300q0 -28 -23.5 -52.5t-54.5 -24.5q-26 0 -50 23t-24 54q0 26 23 50t51 24q29 0 53.5 -21.5t24.5 -52.5zM352 1069q86 -15 86 -137v-932h-200v920l-170 36l32 156z" />
<glyph unicode="&#xfb4c;" horiz-adv-x="1009" d="M629 1356v-86h-428v86h428zM825 397q0 -91 8.5 -142.5t32.5 -92.5l127 -12l-12 -150h-911v158h610q-57 117 -57 164v423q0 187 -142 187h-297l-114 24l34 156l132 -22h243q85 0 146.5 -16.5t100 -44.5t61 -74.5t30.5 -99t8 -124.5v-334z" />
<glyph unicode="&#xfb4d;" horiz-adv-x="970" d="M629 1356v-86h-428v86h428zM117 1112l131 -22h248q85 0 149 -19t105.5 -52t67 -83t36 -106.5t10.5 -127.5v-208q0 -78 -10.5 -145t-38.5 -133t-72.5 -112.5t-117.5 -75t-168 -28.5h-371v158h354q76 0 127 44.5t71.5 111t20.5 151.5v264q0 95 -45 150t-104 55h-311 l-113 22z" />
<glyph unicode="&#xfb4e;" horiz-adv-x="1112" d="M731 1356v-86h-428v86h428zM162 1112l127 -22h620q14 -23 44 -131t30 -191v-274q0 -78 -10.5 -145t-39 -133t-73.5 -112.5t-118 -75t-169 -28.5h-428v158h416q56 0 100 25.5t69.5 69.5t38.5 97.5t13 114.5v469h-397q-70 -152 -70 -309l168 -35l-26 -133l-213 24l-115 -14 q-10 52 10 225q2 15 18 60.5t41 110.5t27 71l-96 22z" />
<glyph unicode="&#xfb4f;" horiz-adv-x="1118" d="M238 1473l22 -123v-289q268 -274 422 -459q0 7 15.5 76.5t23.5 93.5q16 67 50 169t69 173l202 -70q-125 -236 -268 -546q67 -79 174 -223.5t133 -184.5l-151 -119q-151 223 -280 386.5t-294 334.5q-29 30 -82 84.5t-80 82.5t-62.5 66t-61.5 68v318l-19 129z" />
</font>
</defs>
</svg>
